<?xml version="1.0" encoding="utf-8"?>
<!-- Generator: Adobe Illustrator 22.1.0, SVG Export Plug-In . SVG Version: 6.00 Build 0)  -->
<svg version="1.1" id="Layer_1" xmlns="http://www.w3.org/2000/svg" xmlns:xlink="http://www.w3.org/1999/xlink" x="0px" y="0px"
	 viewBox="0 0 768 411" style="enable-background:new 0 0 768 411;" xml:space="preserve">
<style type="text/css">
	.st0{fill:#9AC7FA;}
	.st1{clip-path:url(#SVGID_3_);}
	.st2{fill:#B4A9BE;}
	.st3{fill:#AFD2FB;}
</style>
<g>
	<g>
		<polygon id="SVGID_2_" class="st0" points="768,0 768,262.8 0,411 0,0 		"/>
	</g>
</g>
<title>solar_3</title>
<g>
	<g>
		<g>
			<defs>
				<polygon id="SVGID_1_" points="768,0 768,262.8 0,411 0,0 				"/>
			</defs>
			<clipPath id="SVGID_3_">
				<use xlink:href="#SVGID_1_"  style="overflow:visible;"/>
			</clipPath>
			<g id="Layer_2_2_" class="st1">
				<g id="Layer_2_3_">
					<g id="Layer_2-2_2_">
						<path class="st2" d="M299.1,180.7c-21.9,15.9-37.4,39.5-43,66.2c-15.3,3.9-29.2,11.6-40.5,22.6c-7.7,7-13.4,15.7-17.2,25.2
							c-11.4-13.9-17.4-31-17.4-48.8c0-42.6,34.5-77.2,77.2-77.2C272.7,168.7,286.9,172.8,299.1,180.7z"/>
						<path class="st3" d="M252.4,126.1c-5.6,0-10.3-4.6-10.3-10.3V69c0-5.6,4.6-10.3,10.3-10.3c5.8,0,10.3,4.6,10.3,10.3v46.8
							C262.7,121.5,258,126.1,252.4,126.1z"/>
						<path class="st3" d="M329.8,147.4c-2.5,0-5-1-6.8-2.7c-4.1-3.9-4.3-10.3-0.6-14.5l30-32.9c3.9-4.1,10.3-4.6,14.5-0.6
							c4.1,3.9,4.6,10.3,0.6,14.5l-30.2,32.9C335.6,146.1,332.7,147.4,329.8,147.4z"/>
						<path class="st3" d="M163.2,159.2c-2.7,0-5.4-1-7.2-3.1L123.3,123c-3.9-3.9-3.9-10.6,0-14.5c3.9-4.1,10.6-4.1,14.5,0l0,0
							l32.7,32.7c4.1,3.9,4.1,10.6,0,14.5l0,0C168.6,157.7,166.1,159,163.2,159.2z"/>
						<path class="st3" d="M130.5,237.2H79.8c-5.6,0-10.3-4.6-10.3-10.3s4.6-10.3,10.3-10.3h50.7c5.6,0,10.3,4.6,10.3,10.3
							S136.3,237.2,130.5,237.2z"/>
						<path class="st3" d="M501.1,270.7c-12.4-6.6-26.1-9.9-40.1-9.7h-1.7c-13.2-1-26.3,2.5-37,10.3c-13.4,9.7-21.1,25.7-20.7,42.2
							c0.4,5.6,5.4,9.9,11.2,9.5c5.6-0.4,9.9-5.4,9.5-11.2l0,0c0-9.5,4.8-18.4,12.4-24c7.2-5.2,16.1-7.2,24.8-6.2h1.7
							c10.8-0.4,21.3,2.1,30.8,7c13.2,8.3,20.5,23.4,18.8,38.9c0.8,15.1-4.6,30-14.9,41.2c-11.8,10.1-26.9,15.7-42.4,15.7H186.2
							c-3.5-0.8-19.2-5.8-18.8-29.2c-0.2-6.2,2.3-12.2,6.6-16.8c8.7-6.4,19.4-9.7,30.4-9.1c3.1,0.2,6-1.2,8.1-3.5s2.9-5.4,2.5-8.5
							c-0.6-12.8,4.8-25,14.5-33.3c10.1-9.5,22.8-15.9,36.4-18.4c4.8-0.4,8.7-4.1,9.3-9.1c0-2.3,5.8-47.2,46.3-65l1.2-0.6
							c11.6-4.8,24-7,36.4-6.8c71,0.4,81.3,51.1,81.3,53.6c1,5.6,6.4,9.5,12,8.7c5.6-1,9.5-6.4,8.7-12c0-0.6-12.4-70.5-101.8-70.5
							c-13.2-0.2-26.7,2.1-39.3,6.2C278.2,136,216.6,142,182.5,183.8c-14.3,17.4-22.1,39.3-22.1,62.1c-0.2,24,8.7,47.4,24.8,65.2
							c-9.3,2.1-18,6.4-25.2,12.6c-8.5,8.1-13.2,19.2-13.2,30.8c-2.5,23.6,13,45.3,36.2,50.5h270c20.7-0.2,40.5-7.9,56.1-21.5
							c14.7-15.1,22.3-35.4,21.3-56.3C530.2,294.5,514.5,278.3,501.1,270.7z M181,245.9c0-42.6,34.5-77.2,77.2-77.2
							c14.7,0,29,4.1,41.2,12c-21.9,15.9-37.4,39.5-43,66.2c-15.3,3.9-29.2,11.6-40.5,22.6c-7.7,7-13.4,15.7-17.2,25.2
							C187.2,281,181,263.7,181,245.9z"/>
					</g>
				</g>
			</g>
		</g>
	</g>
</g>
</svg>
