<?xml version="1.0" encoding="utf-8"?>
<!-- Generator: Adobe Illustrator 22.1.0, SVG Export Plug-In . SVG Version: 6.00 Build 0)  -->
<svg version="1.1" id="Layer_1" xmlns="http://www.w3.org/2000/svg" xmlns:xlink="http://www.w3.org/1999/xlink" x="0px" y="0px"
	 viewBox="0 0 375 273" style="enable-background:new 0 0 375 273;" xml:space="preserve">
<style type="text/css">
	.st0{fill:#9AC7FA;}
	.st1{clip-path:url(#SVGID_2_);}
	.st2{fill:#B4A9BE;}
	.st3{fill:#AFD2FB;}
</style>
<polygon class="st0" points="375,0 375,161.4 0,273 0,0 "/>
<title>solar_3</title>
<g>
	<g>
		<g>
			<g>
				<defs>
					<polygon id="SVGID_1_" points="375,0 375,349.3 0,451 0,0 					"/>
				</defs>
				<clipPath id="SVGID_2_">
					<use xlink:href="#SVGID_1_"  style="overflow:visible;"/>
				</clipPath>
				<g id="Layer_2_1_" class="st1">
					<g id="Layer_2-2">
						<path class="st2" d="M129.7,64.3c-10.6,7.7-18.1,19.1-20.8,32c-7.4,1.9-14.1,5.6-19.6,10.9c-3.7,3.4-6.5,7.6-8.3,12.2
							c-5.5-6.7-8.4-15-8.4-23.6c0-20.6,16.7-37.3,37.3-37.3C116.9,58.5,123.8,60.5,129.7,64.3z"/>
						<path class="st3" d="M107.1,37.9c-2.7,0-5-2.2-5-5V10.3c0-2.7,2.2-5,5-5s5,2.2,5,5v22.6C112.1,35.7,109.8,37.9,107.1,37.9z"/>
						<path class="st3" d="M144.5,48.2c-1.2,0-2.4-0.5-3.3-1.3c-2-1.9-2.1-5-0.3-7L155.4,24c1.9-2,5-2.2,7-0.3c2,1.9,2.2,5,0.3,7
							l-14.6,15.9C147.3,47.6,145.9,48.2,144.5,48.2z"/>
						<path class="st3" d="M64,53.9c-1.3,0-2.6-0.5-3.5-1.5l-15.8-16c-1.9-1.9-1.9-5.1,0-7c1.9-2,5.1-2,7,0l0,0l15.8,15.8
							c2,1.9,2,5.1,0,7l0,0C66.6,53.2,65.4,53.8,64,53.9z"/>
						<path class="st3" d="M48.2,91.6H23.7c-2.7,0-5-2.2-5-5s2.2-5,5-5h24.5c2.7,0,5,2.2,5,5S51,91.6,48.2,91.6z"/>
						<path class="st3" d="M227.3,107.8c-6-3.2-12.6-4.8-19.4-4.7h-0.8c-6.4-0.5-12.7,1.2-17.9,5c-6.5,4.7-10.2,12.4-10,20.4
							c0.2,2.7,2.6,4.8,5.4,4.6c2.7-0.2,4.8-2.6,4.6-5.4l0,0c0-4.6,2.3-8.9,6-11.6c3.5-2.5,7.8-3.5,12-3h0.8
							c5.2-0.2,10.3,1,14.9,3.4c6.4,4,9.9,11.3,9.1,18.8c0.4,7.3-2.2,14.5-7.2,19.9c-5.7,4.9-13,7.6-20.5,7.6H75.1
							c-1.7-0.4-9.3-2.8-9.1-14.1c-0.1-3,1.1-5.9,3.2-8.1c4.2-3.1,9.4-4.7,14.7-4.4c1.5,0.1,2.9-0.6,3.9-1.7c1-1.1,1.4-2.6,1.2-4.1
							c-0.3-6.2,2.3-12.1,7-16.1c4.9-4.6,11-7.7,17.6-8.9c2.3-0.2,4.2-2,4.5-4.4c0-1.1,2.8-22.8,22.4-31.4l0.6-0.3
							c5.6-2.3,11.6-3.4,17.6-3.3C193,66.2,198,90.7,198,91.9c0.5,2.7,3.1,4.6,5.8,4.2c2.7-0.5,4.6-3.1,4.2-5.8
							c0-0.3-6-34.1-49.2-34.1c-6.4-0.1-12.9,1-19,3c-20.2-16.5-50-13.6-66.5,6.6c-6.9,8.4-10.7,19-10.7,30
							c-0.1,11.6,4.2,22.9,12,31.5c-4.5,1-8.7,3.1-12.2,6.1c-4.1,3.9-6.4,9.3-6.4,14.9c-1.2,11.4,6.3,21.9,17.5,24.4H204
							c10-0.1,19.6-3.8,27.1-10.4c7.1-7.3,10.8-17.1,10.3-27.2C241.4,119.3,233.8,111.5,227.3,107.8z M72.6,95.8
							c0-20.6,16.7-37.3,37.3-37.3c7.1,0,14,2,19.9,5.8c-10.6,7.7-18.1,19.1-20.8,32c-7.4,1.9-14.1,5.6-19.6,10.9
							c-3.7,3.4-6.5,7.6-8.3,12.2C75.6,112.8,72.6,104.4,72.6,95.8z"/>
					</g>
				</g>
			</g>
		</g>
	</g>
</g>
</svg>
