<?xml version="1.0" encoding="utf-8"?>
<!-- Generator: Adobe Illustrator 22.1.0, SVG Export Plug-In . SVG Version: 6.00 Build 0)  -->
<svg version="1.1" id="Layer_1" xmlns="http://www.w3.org/2000/svg" xmlns:xlink="http://www.w3.org/1999/xlink" x="0px" y="0px"
	 viewBox="0 0 35.8 36.3" style="enable-background:new 0 0 35.8 36.3;" xml:space="preserve">
<style type="text/css">
	.st0{fill:#9FC5E9;}
	.st1{fill:#F26632;}
</style>
<title>heat-recovery-blue</title>
<g id="Layer_2_1_">
	<g id="Layer_2-2">
		<path class="st0" d="M31.2,6.6c-0.1,0.5-0.5,0.8-0.9,0.9c-0.1,0-0.2,0-0.3-0.1h0.3C30.7,7.4,31.2,7.1,31.2,6.6z"/>
		<path class="st0" d="M31.3,6.4L31.3,6.4C31.3,6.5,31.3,6.5,31.3,6.4c0,0.1,0,0.1,0,0.2c-0.1,0.5-0.5,0.8-1,0.8h-5
			c-0.5,0-1-0.4-1-1c0-0.5,0.5-1,1-1h2.4C21.7,0.6,13,0.7,7.1,6c-5.8,5.2-6.9,14-2.6,20.5c0.3,0.5,0.2,1.1-0.3,1.4
			c-0.2,0.1-0.3,0.2-0.5,0.2l0-0.1c-0.3,0-0.7-0.2-0.8-0.5C-2.5,19.3-0.2,8.3,8.1,2.9c6.5-4.3,15.1-3.8,21.1,1.2l-0.1-2.6
			c0-0.5,0.4-1,1-1c0.5,0,1,0.5,1,1L31.3,6.4z"/>
		<path class="st0" d="M27.8,33.5c-2.9,1.9-6.3,2.9-9.8,2.9c-4.1,0-8.1-1.4-11.3-4l0.1,2.6c0,0.5-0.4,1-1,1c-0.5,0-1-0.4-1-1l-0.2-5
			v0c0,0,0,0,0,0c0-0.1,0-0.1,0-0.2c0-0.1,0-0.1,0.1-0.2c0.2-0.4,0.5-0.6,0.9-0.6h5c0.5,0,1,0.5,1,1s-0.5,1-1,1H8.2
			c6,4.8,14.8,4.6,20.6-0.8c3.2-3,5.1-7.2,5.1-11.6c0-3.1-0.9-6.1-2.6-8.7c-0.3-0.5-0.2-1.1,0.3-1.4c0.5-0.3,1.1-0.2,1.4,0.3
			C38.4,17,36,28.1,27.8,33.5z"/>
		<path class="st0" d="M4.8,29.3c-0.1,0.1-0.1,0.2-0.2,0.3C4.7,29.4,4.8,29.3,4.8,29.3z"/>
		<path class="st0" d="M5.6,28.9c-0.3,0-0.6,0.1-0.8,0.4C4.9,29.1,5,29,5.2,28.9c0.2-0.1,0.4-0.1,0.6,0H5.6z"/>
		<path class="st1" d="M17.9,25.2V20c0-0.6-0.4-1-1-1h-3.3l3.9-8.2l0.1,5.2c0,0.5,0.5,1,1,1H22L17.9,25.2z"/>
		<path class="st0" d="M23.6,15h-4l-0.2-8.3c0-0.5-0.3-0.9-0.8-1c-0.5-0.1-0.9,0.1-1.1,0.5l-6.3,13.3c-0.1,0.1-0.1,0.3-0.1,0.4
			c0,0.5,0.4,1,1,1h3.8v8.4c0,0.5,0.3,0.9,0.8,1c0.1,0,0.2,0,0.2,0c0.4,0,0.7-0.2,0.9-0.5l6.7-13.4c0.1-0.1,0.1-0.3,0.1-0.4
			C24.6,15.4,24.2,15,23.6,15z M17.9,25.2V20c0-0.6-0.4-1-1-1h-3.3l3.9-8.2l0.1,5.2c0,0.5,0.5,1,1,1H22L17.9,25.2z"/>
	</g>
</g>
</svg>
