<svg xmlns="http://www.w3.org/2000/svg" viewBox="0 0 49.45 37.62"><defs><style>.cls-1{fill:#f26532;}.cls-2{fill:#9fc5e9;}</style></defs><title>indoor</title><g id="Layer_2" data-name="Layer 2"><g id="Layer_2-2" data-name="Layer 2"><path class="cls-1" d="M28.64,37.41H20.58l.1-.08a1.05,1.05,0,0,0,.29-.71l0-13.81h7.31V36.62A1,1,0,0,0,28.64,37.41Z"/><path class="cls-2" d="M49.22,21.2a1,1,0,0,1-1.4.13l-7.4-6.16V36.62a1,1,0,0,1-1,1H29.25a1,1,0,0,1-.61-.21,1,1,0,0,1-.39-.79V22.81H20.94l0,13.81a1.05,1.05,0,0,1-.29.71l-.1.08a1,1,0,0,1-.61.21H9.81a1,1,0,0,1-1-1V17.8a1,1,0,0,1,2,0V35.62H19l0-13.81a1,1,0,0,1,1-1h9.31a1,1,0,0,1,1,1V35.62h8.17V13.51L24.93,2.29l-23.3,19a.94.94,0,0,1-.63.23,1,1,0,0,1-.63-1.77L24.31.22a1,1,0,0,1,1.27,0L38.42,10.91V3.36a1,1,0,1,1,2,0v9.21l8.68,7.22A1,1,0,0,1,49.22,21.2Z"/></g></g></svg>