<?xml version="1.0" encoding="utf-8"?>
<!-- Generator: Adobe Illustrator 22.1.0, SVG Export Plug-In . SVG Version: 6.00 Build 0)  -->
<svg version="1.1" id="Layer_1" xmlns="http://www.w3.org/2000/svg" xmlns:xlink="http://www.w3.org/1999/xlink" x="0px" y="0px"
	 viewBox="0 0 141 34" style="enable-background:new 0 0 141 34;" xml:space="preserve">
<style type="text/css">
	.st0{fill:#FFFFFF;}
	.st1{fill:#FC632D;}
</style>
<g id="Symbols">
	<g id="Header" transform="translate(-29.000000, -18.000000)">
		<g id="GRE-logo" transform="translate(29.000000, 18.000000)">
			<g id="Bitmap">
				
					<image style="overflow:visible;enable-background:new    ;" width="6224" height="2025" xlink:href="32F712CDD1226A65.png"  transform="matrix(1.595832e-02 0 0 1.595832e-02 40.8852 0.8865)">
				</image>
			</g>
		</g>
	</g>
</g>
<g id="Page-1" transform="translate(0.000000, 1.000000)">
	<path id="Fill-1" class="st0" d="M21.5,0c0.8,0,1.5,0.1,2.3,0.2c1.5,0.2,3,0.6,4.5,1.1C29.9,2,31.5,2.7,33,3.8
		c2.5,1.7,4.3,3.8,5.7,6.5c0.1,0.2,0.2,0.5,0.3,0.7c0,0.1,0,0.1,0.1,0.2c-0.1,0-0.2,0-0.3,0c-3.7,0-7.5,0-11.2,0c-2.7,0-5.4,0-8.1,0
		c-0.3,0-0.6,0-0.9,0c-0.4,0-0.6,0.2-0.8,0.5c-0.5,1-0.9,2-1.4,2.9c-2.2,4.7-4.5,9.5-6.7,14.2c0,0.1-0.1,0.2-0.2,0.3
		c-0.1,0.1-0.2,0.1-0.3,0.1c-0.1,0-0.1-0.1-0.2-0.1c-1.8-1.1-3.4-2.4-4.7-4c-1.5-1.9-2.5-4-3-6.4C1.1,18,1,17.4,1,16.8
		c0-0.2,0-1.5,0-1.7C1,14.6,1,14.2,1.1,13.7c0.2-1.4,0.7-2.7,1.4-4C4.1,6.9,6.3,4.7,9.1,3c1.5-0.9,3.1-1.6,4.8-2
		c1.1-0.3,2.3-0.6,3.4-0.7c0.8-0.1,1.5-0.2,2.3-0.2C19.8,0,21.4,0,21.5,0"/>
	<path id="Fill-4" class="st1" d="M18.1,32.9c-0.9,0-1.7-0.1-2.6-0.3c-0.1,0-0.2-0.1-0.3-0.1c-0.1-0.1,0-0.2,0.1-0.3
		c0.4-0.9,0.8-1.7,1.2-2.6c1-2.3,2-4.5,3-6.8c0.3-0.8,0.6-1.6,0.8-2.5c0.1-0.7,0.2-1.5,0.1-2.2c-0.2-1.2-0.8-2.2-1.9-2.8
		c-0.5-0.2-1-0.4-1.5-0.5c-0.2,0-0.2-0.1-0.2-0.3c0-0.3,0.2-0.4,0.4-0.4c0.1,0,0.2,0,0.3,0c3,0,6.1,0,9.1,0c4.2,0,8.3,0,12.5,0
		c0.1,0,0.2,0,0.4,0c0.2,0,0.3,0.1,0.4,0.3c0,0.1,0,0.2,0.1,0.3c0.3,2.8-0.2,5.4-1.5,7.9c-1.3,2.5-3.1,4.6-5.4,6.2
		c-2.5,1.8-5.2,2.9-8.2,3.6c-1.2,0.2-2.3,0.4-3.5,0.5C21.2,32.9,19.1,33.1,18.1,32.9"/>
</g>
</svg>
