<?xml version="1.0" encoding="utf-8"?>
<!-- Generator: Adobe Illustrator 22.1.0, SVG Export Plug-In . SVG Version: 6.00 Build 0)  -->
<svg version="1.1" id="Layer_1" xmlns="http://www.w3.org/2000/svg" xmlns:xlink="http://www.w3.org/1999/xlink" x="0px" y="0px"
	 viewBox="0 0 30 24" style="enable-background:new 0 0 30 24;" xml:space="preserve">
<style type="text/css">
	.st0{fill:#FFFFFF;}
</style>
<g id="Symbols">
	<g id="Header" transform="translate(-317.000000, -25.000000)">
		<g id="List" transform="translate(-7.000000, 0.000000)">
			<path class="st0" d="M351.9,35h-25.7c-1.2,0-2.1,0.9-2.1,2s1,2,2.1,2h25.7c1.2,0,2.1-0.9,2.1-2S353,35,351.9,35L351.9,35z
				 M326.1,29h25.7c1.2,0,2.1-0.9,2.1-2s-1-2-2.1-2h-25.7c-1.2,0-2.1,0.9-2.1,2S325,29,326.1,29L326.1,29z M351.9,45h-25.7
				c-1.2,0-2.1,0.9-2.1,2s1,2,2.1,2h25.7c1.2,0,2.1-0.9,2.1-2S353,45,351.9,45L351.9,45z"/>
		</g>
	</g>
</g>
</svg>
