<?xml version="1.0" encoding="utf-8"?>
<!-- Generator: Adobe Illustrator 22.1.0, SVG Export Plug-In . SVG Version: 6.00 Build 0)  -->
<svg version="1.1" id="Layer_1" xmlns="http://www.w3.org/2000/svg" xmlns:xlink="http://www.w3.org/1999/xlink" x="0px" y="0px"
	 viewBox="0 0 1442 391" style="enable-background:new 0 0 1442 391;" xml:space="preserve">
<style type="text/css">
	.st0{fill:#9AC7FA;}
	.st1{clip-path:url(#SVGID_2_);}
	.st2{fill:#AFD2FB;}
	.st3{fill:#B4A9BE;}
</style>
<title>heat_pump_4</title>
<polygon class="st0" points="1442,0 1442,90 0,391 0,0 "/>
<g>
	<g>
		<g>
			<g>
				<g>
					<defs>
						<polygon id="SVGID_1_" points="1442,0 1442,90 0,391 0,0 						"/>
					</defs>
					<clipPath id="SVGID_2_">
						<use xlink:href="#SVGID_1_"  style="overflow:visible;"/>
					</clipPath>
					<g id="Layer_2_3_" class="st1">
						<g id="Layer_2-2_2_">
							<path class="st2" d="M261,37.1c-4.3,0-7.7-3.4-7.7-7.7c1-7.7,5.6-14.7,12.5-18.4c6.7-5.3,13-10.4,13-19.6
								c0-7.7-3.9-12-10.4-18.6c-8.9-7.2-14.3-17.9-14.9-29.4c0-4.3,3.4-7.7,7.7-7.7s7.7,3.4,7.7,7.7c0,7.7,3.9,12,10.4,18.6
								c8.9,7.2,14.3,17.9,14.9,29.4c-0.7,13-7.7,24.8-18.6,31.6c-2.2,1.7-6.8,5.5-6.8,6.7C268.7,33.6,265.3,37.1,261,37.1z"/>
							<path class="st2" d="M211.1,37.1c-4.3,0-7.7-3.4-7.7-7.7c1-7.7,5.6-14.7,12.5-18.4c6.8-5.3,13-10.4,13-19.6
								c0-7.7-3.9-12-10.4-18.6c-8.9-7.2-14.3-17.9-14.9-29.4c0-4.3,3.4-7.7,7.7-7.7s7.7,3.4,7.7,7.7c0,7.7,3.9,12,10.4,18.6
								c8.9,7.2,14.3,17.9,14.9,29.4c-0.7,13-7.7,24.8-18.6,31.6c-2.2,1.7-6.8,5.5-6.8,6.7C218.8,33.6,215.2,37.1,211.1,37.1z"/>
							<path class="st2" d="M161.1,37.1c-4.3,0-7.7-3.4-7.7-7.7c1-7.7,5.6-14.7,12.5-18.4c6.7-5.3,13-10.4,13-19.6
								c0-7.7-3.9-12-10.4-18.6c-8.9-7.2-14.3-17.9-14.9-29.4c0-4.3,3.4-7.7,7.7-7.7s7.7,3.4,7.7,7.7c0,7.7,3.9,12,10.4,18.6
								c8.9,7.2,14.3,17.9,14.9,29.4c-0.7,12.8-7.7,24.6-18.6,31.4c-2.2,1.7-6.8,5.5-6.8,6.7C168.8,33.6,165.4,37.1,161.1,37.1z"/>
							<path class="st2" d="M463,304.2H278.8v-26.8c0-2.9-1.5-5.5-4.1-6.8c-2.4-1.2-5.3-1-7.7,0.3l-53.8,36.2
								c-2.2,1.5-3.4,3.9-3.4,6.7c0,2.6,1.5,5,3.8,6.3l53.8,33c1.2,0.7,2.6,1,3.9,1s2.6-0.3,3.8-1c2.4-1.4,3.9-3.9,3.9-6.7v-26.8
								h184.3c4.3,0,7.7-3.4,7.7-7.7c0-4.3-3.4-7.7-7.7-7.7H463L463,304.2z M263.4,332.7l-32-19.7l31.9-21.3v41H263.4z"/>
							<polygon class="st3" points="263.2,291.7 263.2,332.7 231.4,313 							"/>
							<path class="st2" d="M382.9,191.6c-1.2-2.6-3.6-4.3-6.3-4.4l-28.7-2.4c-1-70.7-58.9-127.2-129.6-126.4S91.1,117.3,92.1,187.9
								c0.7,56.5,38.4,105.9,92.7,121.4c0.7,0,1.4,0,2,0c3.6,0.2,6.7-2.2,7.7-5.6c1.2-4.1-1.2-8.4-5.3-9.6l0,0
								c-59.8-16.9-94.6-79.1-77.7-138.8s79.1-94.6,138.8-77.7c47.6,13.5,80.8,56.4,82,105.9l-24.8-2.2c-4.3-0.5-8,2.4-8.5,6.7
								c-0.2,1.7,0.2,3.2,0.9,4.8l31.4,56.5c1.2,2.4,3.6,3.8,6.1,3.9h0.5c2.4,0,4.8-1.2,6.1-3.1l37.4-50.7
								C383.4,197.1,384,194.2,382.9,191.6z M339.6,233.8l-21.3-38.4l46.5,3.9L339.6,233.8z"/>
							<polygon class="st2" points="364.8,199.6 339.6,233.8 318.2,195.7 							"/>
							<polygon class="st3" points="364.8,199.6 339.6,233.8 318.2,195.7 							"/>
						</g>
					</g>
				</g>
			</g>
		</g>
	</g>
</g>
</svg>
