<?xml version="1.0" encoding="utf-8"?>
<!-- Generator: Adobe Illustrator 22.1.0, SVG Export Plug-In . SVG Version: 6.00 Build 0)  -->
<svg version="1.1" id="Layer_1" xmlns="http://www.w3.org/2000/svg" xmlns:xlink="http://www.w3.org/1999/xlink" x="0px" y="0px"
	 viewBox="0 0 1442 391" style="enable-background:new 0 0 1442 391;" xml:space="preserve">
<style type="text/css">
	.st0{fill:#9AC7FA;}
	.st1{clip-path:url(#SVGID_2_);}
	.st2{fill:#AFD2FB;}
	.st3{fill:#B4A9BE;}
</style>
<polygon class="st0" points="1442,0 1442,90 0,391 0,0 "/>
<title>control_3</title>
<g>
	<g>
		<g>
			<defs>
				<polygon id="SVGID_1_" points="1442,0 1442,90 0,391 0,0 				"/>
			</defs>
			<clipPath id="SVGID_2_">
				<use xlink:href="#SVGID_1_"  style="overflow:visible;"/>
			</clipPath>
			<g id="Layer_2_1_" class="st1">
				<g>
					<path class="st2" d="M364.4,97.5c0.4,0,0.7-0.2,1.3-0.3l-0.1,0.1C365.2,97.3,364.9,97.5,364.4,97.5z"/>
					<g>
						<path class="st3" d="M296.2,328.7c-5.6,23-2.9,35.1-2.6,36.4c0.7,2.9,2.6,5.2,5,6.5l-83.8-1.5c3.1-1,5.6-3.4,6.6-6.7
							c6-18.4-3.1-31.2-11.2-42.4c-7.8-10.9-15.9-22.1-16.1-41.9c-0.1-22,14.4-38.1,29.9-55c7.5-8.2,15.4-16.9,21.3-26.2
							c3.9-6.1,6.5-13.2,8.2-19.7c3,6.2,5.3,14.7,4.9,25.7c-0.3,9.5-3.7,21.6-6.9,32.3c-5.7,20-11,38.9,4.8,44.8
							c15.2,5.7,33.6-11.9,48.7-32c3.9,7.9,7.6,18.7,6.6,29.6c-1,13.4-4.2,20.3-7.8,28.3C301.3,313,298.3,319.5,296.2,328.7z"/>
						<path class="st2" d="M392,235.1c-1,44.3-27.4,88.5-81,135.4c-1.9,1.7-4.5,2.7-7,2.7c-1,0-2.1-0.2-3.2-0.6
							c-0.7-0.2-1.5-0.6-2.2-1c-2.4-1.3-4.3-3.6-5-6.5c-0.3-1.3-3-13.4,2.6-36.4c2.1-9.2,5.2-15.7,7.8-21.6c3.6-8,6.7-15,7.8-28.3
							c1-10.9-2.7-21.7-6.6-29.6c-15.1,20-33.5,37.6-48.7,32c-15.8-5.9-10.5-24.8-4.8-44.8c3.1-10.7,6.5-22.8,6.9-32.3
							c0.4-11.1-1.9-19.5-4.9-25.7c-1.7,6.5-4.3,13.6-8.2,19.7c-5.9,9.3-13.8,18-21.3,26.2c-15.5,16.9-30,32.9-29.9,55
							c0.1,19.8,8.2,31,16.1,41.9c8.2,11.2,17.2,24,11.2,42.4c-1,3.3-3.6,5.8-6.6,6.7c-2.2,0.7-4.5,0.9-6.9,0.1
							c-5.6-1.9-8.6-7.8-6.9-13.5c2.4-7.3-0.2-11.9-8.2-23.3c-8.5-11.6-19.9-27.6-20.1-54.1c-0.2-30.5,18.7-51.3,35.5-69.7
							c7.3-7.9,14.1-15.5,19-23.2c7.9-12.4,7.9-32.1,7.9-32.3c0-3.9,1.9-7.3,5.2-9.3c3.2-1.9,7.3-2,10.6-0.2
							c1.3,0.7,30.3,17.1,28.7,60.1c-0.4,12.1-4.3,25.6-7.6,37.5c-1.4,4.6-3.1,10.6-4,15.4c7.6-6.1,19.4-19.7,28.7-33.8
							c1.9-2.9,5.2-4.6,8.6-4.7c3.4-0.2,6.6,1.3,8.8,4c0.9,1.2,21.4,27.4,19,57.5c-1.5,17.1-5.7,26.4-9.8,35.4
							c-2.4,5.5-4.8,10.6-6.5,17.8c-0.2,1-0.4,1.9-0.6,2.7c35.8-35.8,53.5-69.2,54.2-101.7c1-53.7-44.7-97.4-89.1-139.7
							c-37.9-36.2-73.8-70.3-73.8-108.2c0-6,4.8-10.7,10.7-10.7c6,0,10.7,4.7,10.7,10.7c0,28.7,32.6,59.9,67.2,92.8
							C341.7,122.9,393.3,172.1,392,235.1z"/>
						<path class="st2" d="M181,373.2c-2.4,0-4.9-0.8-6.9-2.5c-106.1-90.1-63.5-147.2-22.4-202.5c23.6-31.6,47.9-64.2,45-104.6
							c-0.4-5.9,4-11,9.9-11.4c5.8-0.6,11,4,11.4,9.9c3.4,48.3-24.5,85.8-49.2,118.9c-40.1,53.8-71.8,96.3,19,173.4
							c4.5,3.8,5.1,10.6,1.2,15.1C187.1,371.9,184.1,373.2,181,373.2z"/>
					</g>
				</g>
			</g>
		</g>
	</g>
</g>
</svg>
