<?xml version="1.0" encoding="utf-8"?>
<!-- Generator: Adobe Illustrator 22.1.0, SVG Export Plug-In . SVG Version: 6.00 Build 0)  -->
<svg version="1.1" id="Layer_1" xmlns="http://www.w3.org/2000/svg" xmlns:xlink="http://www.w3.org/1999/xlink" x="0px" y="0px"
	 viewBox="0 0 768 511" style="enable-background:new 0 0 768 511;" xml:space="preserve">
<style type="text/css">
	.st0{fill:#E0EFFA;}
	.st1{clip-path:url(#SVGID_3_);}
	.st2{fill:#D2E6F7;}
	.st3{fill:#E5D4D4;}
</style>
<g>
	<g>
		<polygon id="SVGID_1_" class="st0" points="768,0 768,326.8 0,511 0,0 		"/>
	</g>
</g>
<title>control_3</title>
<g>
	<defs>
		<polygon id="SVGID_2_" points="768,0 768,326.8 0,511 0,0 		"/>
	</defs>
	<clipPath id="SVGID_3_">
		<use xlink:href="#SVGID_2_"  style="overflow:visible;"/>
	</clipPath>
	<g id="Layer_2_1_" class="st1">
		<g id="Layer_2-2">
			<path class="st2" d="M356.3,157.5c-28.7,0-51.8-23.3-51.8-51.8c0-28.7,23.3-51.8,51.8-51.8c28.7,0,51.8,23.3,51.8,51.8
				c0,0,0,0,0,0.2C408.2,134.4,385,157.5,356.3,157.5C356.6,157.5,356.3,157.5,356.3,157.5z M356.3,76.7
				c-16.1,0-29.2,13.1-29.2,29.2s13.1,29.2,29.2,29.2s29.2-13.1,29.2-29.2l0,0C385.5,89.6,372.4,76.7,356.3,76.7z"/>
			<path class="st3" d="M256.3,245.7c0,16.1-12.9,29.2-28.9,29.2S198.2,262,198.2,246s12.9-29.2,28.9-29.2h0.2
				C243.1,216.8,256.1,229.9,256.3,245.7z"/>
			<path class="st2" d="M227,194.1c-28.7,0-51.8,23.1-52.1,51.8c0,28.7,23.1,51.8,51.8,52.1c28.7,0,51.8-23.1,52.1-51.8V246
				C278.9,217.3,255.6,194.1,227,194.1z M227,275c-16.1,0-29.2-12.9-29.2-28.9s12.9-29.2,28.9-29.2s29.2,12.9,29.2,28.9
				c0,0,0,0,0,0.2C256.3,261.9,243.1,275,227,275z"/>
			<path class="st2" d="M399.1,431c-28.7,0-51.8-23.1-52.1-51.8c0-28.7,23.1-51.8,51.8-52.1c28.7,0,51.8,23.1,52.1,51.8v0.2
				C450.7,407.6,427.6,431,399.1,431z M399.1,349.9c-16.1,0-29.2,12.9-29.2,28.9s12.9,29.2,28.9,29.2s29.2-12.9,29.2-29
				c0,0,0,0,0-0.2C428.1,363.1,415.1,350.1,399.1,349.9z"/>
			<path class="st2" d="M285.7,118.8H83.3c-6.4,0-11.3-5-11.3-11.3s5-11.3,11.3-11.3h202.4c6.4,0,11.3,5,11.3,11.3
				S292,118.8,285.7,118.8z"/>
			<path class="st2" d="M541.2,118.8H423.7c-6.4,0-11.3-5-11.3-11.3s5-11.3,11.3-11.3h117.5c6.4,0,11.3,5,11.3,11.3
				S547.6,118.8,541.2,118.8z"/>
			<path class="st2" d="M152.5,254.6H83.3c-6.4,0-11.3-5-11.3-11.3S77,232,83.3,232h69.3c6.4,0,11.3,5,11.3,11.3
				C163.9,249.6,158.9,254.6,152.5,254.6z"/>
			<path class="st2" d="M541.2,254.6H301.8c-6.4,0-11.3-5-11.3-11.3s5-11.3,11.3-11.3h239.5c6.4,0,11.3,5,11.3,11.3
				S547.6,254.6,541.2,254.6z"/>
			<path class="st2" d="M541.2,390.5h-69.3c-6.4,0-11.3-5-11.3-11.3s5-11.3,11.3-11.3h69.3c6.4,0,11.3,5,11.3,11.3
				S547.6,390.5,541.2,390.5z"/>
			<path class="st2" d="M316.1,390.5H83.3c-6.4,0-11.3-5-11.3-11.3s5-11.3,11.3-11.3H316c6.4,0,11.3,5,11.3,11.3
				S322.1,390.5,316.1,390.5z"/>
		</g>
	</g>
</g>
</svg>
