<?xml version="1.0" encoding="utf-8"?>
<!-- Generator: Adobe Illustrator 22.1.0, SVG Export Plug-In . SVG Version: 6.00 Build 0)  -->
<svg version="1.1" id="Layer_1" xmlns="http://www.w3.org/2000/svg" xmlns:xlink="http://www.w3.org/1999/xlink" x="0px" y="0px"
	 viewBox="0 0 1442 511" style="enable-background:new 0 0 1442 511;" xml:space="preserve">
<style type="text/css">
	.st0{fill:#E0EFFA;}
	.st1{clip-path:url(#SVGID_2_);}
	.st2{fill:#D2E6F7;}
	.st3{fill:#E5D4D4;}
</style>
<polygon class="st0" points="1442,0 1442,210 0,511 0,0 "/>
<title>control_3</title>
<g>
	<g>
		<defs>
			<polygon id="SVGID_1_" points="1442,0 1442,210 0,511 0,0 			"/>
		</defs>
		<clipPath id="SVGID_2_">
			<use xlink:href="#SVGID_1_"  style="overflow:visible;"/>
		</clipPath>
		<g id="Layer_2_1_" class="st1">
			<g id="Layer_2-2">
				<path class="st2" d="M377.7,162.9c-28.8,0-52.1-23.4-52.1-52.1c0-28.8,23.4-52.1,52.1-52.1c28.8,0,52.1,23.4,52.1,52.1
					c0,0,0,0,0,0.3C429.8,139.7,406.7,162.9,377.7,162.9C378,162.9,377.7,162.9,377.7,162.9z M377.7,81.6
					c-16.2,0-29.4,13.2-29.4,29.4s13.2,29.4,29.4,29.4s29.4-13.2,29.4-29.4l0,0C407.1,94.6,393.9,81.6,377.7,81.6z"/>
				<path class="st3" d="M277.2,251.6c0,16.2-12.9,29.4-29.1,29.4s-29.4-12.9-29.4-29.1s12.9-29.4,29.1-29.4h0.3
					C264,222.5,277,235.6,277.2,251.6z"/>
				<path class="st2" d="M247.8,199.7c-28.8,0-52.1,23.3-52.4,52.1c0,28.8,23.3,52.1,52.1,52.4c28.8,0,52.1-23.3,52.4-52.1v-0.3
					C300,223,276.5,199.7,247.8,199.7z M247.8,280.9c-16.2,0-29.4-12.9-29.4-29.1s12.9-29.4,29.1-29.4s29.4,12.9,29.4,29.1
					c0,0,0,0,0,0.3C277.2,267.8,264,280.9,247.8,280.9z"/>
				<path class="st2" d="M420.7,437.7c-28.8,0-52.1-23.3-52.4-52.1c0-28.8,23.3-52.1,52.1-52.4c28.8,0,52.1,23.3,52.4,52.1v0.3
					C472.7,414.3,449.4,437.7,420.7,437.7z M420.7,356.2c-16.2,0-29.4,12.9-29.4,29.1s12.9,29.4,29.1,29.4s29.4-12.9,29.4-29.1
					c0,0,0,0,0-0.3C449.8,369.4,436.9,356.5,420.7,356.2z"/>
				<path class="st2" d="M306.8,124H103.4c-6.4,0-11.4-5-11.4-11.4s5-11.4,11.4-11.4h203.4c6.4,0,11.4,5,11.4,11.4
					S313.1,124,306.8,124z"/>
				<path class="st2" d="M563.6,124H445.5c-6.4,0-11.4-5-11.4-11.4s5-11.4,11.4-11.4h118.1c6.4,0,11.4,5,11.4,11.4
					S570,124,563.6,124z"/>
				<path class="st2" d="M173,260.4h-69.6c-6.4,0-11.4-5-11.4-11.4c0-6.4,5-11.4,11.4-11.4H173c6.4,0,11.4,5,11.4,11.4
					C184.5,255.4,179.4,260.4,173,260.4z"/>
				<path class="st2" d="M563.6,260.4H323c-6.4,0-11.4-5-11.4-11.4c0-6.4,5-11.4,11.4-11.4h240.6c6.4,0,11.4,5,11.4,11.4
					C575,255.4,570,260.4,563.6,260.4z"/>
				<path class="st2" d="M563.6,397H494c-6.4,0-11.4-5-11.4-11.4c0-6.4,5-11.4,11.4-11.4h69.6c6.4,0,11.4,5,11.4,11.4
					C575,392,570,397,563.6,397z"/>
				<path class="st2" d="M337.2,397H103.4C97,397,92,392,92,385.6c0-6.4,5-11.4,11.4-11.4h233.8c6.4,0,11.4,5,11.4,11.4
					C348.6,392,343.5,397,337.2,397z"/>
			</g>
		</g>
	</g>
</g>
</svg>
