<?xml version="1.0" encoding="utf-8"?>
<!-- Generator: Adobe Illustrator 22.1.0, SVG Export Plug-In . SVG Version: 6.00 Build 0)  -->
<svg version="1.1" id="Layer_1" xmlns="http://www.w3.org/2000/svg" xmlns:xlink="http://www.w3.org/1999/xlink" x="0px" y="0px"
	 viewBox="0 0 1442 391" style="enable-background:new 0 0 1442 391;" xml:space="preserve">
<style type="text/css">
	.st0{fill:#E0EFFA;}
	.st1{clip-path:url(#SVGID_2_);}
	.st2{fill:#D2E6F7;}
	.st3{fill:#E5D4D4;}
</style>
<polygon class="st0" points="1442,0 1442,90 0,391 0,0 "/>
<title>control_3</title>
<g>
	<g>
		<defs>
			<polygon id="SVGID_1_" points="1442,0 1442,90 0,391 0,0 			"/>
		</defs>
		<clipPath id="SVGID_2_">
			<use xlink:href="#SVGID_1_"  style="overflow:visible;"/>
		</clipPath>
		<g id="Layer_2_1_" class="st1">
			<g id="Layer_2-2">
				<path class="st2" d="M297.2,143.6c-20.7,0-37.4-16.8-37.4-37.4c0-20.7,16.8-37.4,37.4-37.4c20.7,0,37.4,16.8,37.4,37.4
					c0,0,0,0,0,0.2C334.6,126.9,318,143.6,297.2,143.6C297.4,143.6,297.2,143.6,297.2,143.6z M297.2,85.2
					c-11.6,0-21.1,9.5-21.1,21.1s9.5,21.1,21.1,21.1s21.1-9.5,21.1-21.1l0,0C318.3,94.5,308.8,85.2,297.2,85.2z"/>
				<path class="st3" d="M225,207.3c0,11.6-9.3,21.1-20.9,21.1c-11.6,0-21.1-9.3-21.1-20.9s9.3-21.1,20.9-21.1h0.2
					C215.5,186.4,224.9,195.8,225,207.3z"/>
				<path class="st2" d="M203.9,170c-20.7,0-37.4,16.7-37.6,37.4c0,20.7,16.7,37.4,37.4,37.6c20.7,0,37.4-16.7,37.6-37.4v-0.2
					C241.4,186.7,224.5,170,203.9,170z M203.9,228.3c-11.6,0-21.1-9.3-21.1-20.9s9.3-21.1,20.9-21.1s21.1,9.3,21.1,20.9
					c0,0,0,0,0,0.2C225,218.9,215.5,228.3,203.9,228.3z"/>
				<path class="st2" d="M328.1,340.9c-20.7,0-37.4-16.7-37.6-37.4c0-20.7,16.7-37.4,37.4-37.6c20.7,0,37.4,16.7,37.6,37.4v0.2
					C365.4,324.1,348.7,340.9,328.1,340.9z M328.1,282.4c-11.6,0-21.1,9.3-21.1,20.9s9.3,21.1,20.9,21.1s21.1-9.3,21.1-20.9
					c0,0,0,0,0-0.2C349,291.9,339.7,282.6,328.1,282.4z"/>
				<path class="st2" d="M246.3,115.6H100.2c-4.6,0-8.2-3.6-8.2-8.2s3.6-8.2,8.2-8.2h146.1c4.6,0,8.2,3.6,8.2,8.2
					S250.8,115.6,246.3,115.6z"/>
				<path class="st2" d="M430.7,115.6h-84.8c-4.6,0-8.2-3.6-8.2-8.2s3.6-8.2,8.2-8.2h84.8c4.6,0,8.2,3.6,8.2,8.2
					S435.3,115.6,430.7,115.6z"/>
				<path class="st2" d="M150.2,213.6h-50c-4.6,0-8.2-3.6-8.2-8.2s3.6-8.2,8.2-8.2h50c4.6,0,8.2,3.6,8.2,8.2
					S154.8,213.6,150.2,213.6z"/>
				<path class="st2" d="M430.7,213.6H257.9c-4.6,0-8.2-3.6-8.2-8.2s3.6-8.2,8.2-8.2h172.8c4.6,0,8.2,3.6,8.2,8.2
					S435.3,213.6,430.7,213.6z"/>
				<path class="st2" d="M430.7,311.7h-50c-4.6,0-8.2-3.6-8.2-8.2s3.6-8.2,8.2-8.2h50c4.6,0,8.2,3.6,8.2,8.2
					C438.9,308.1,435.3,311.7,430.7,311.7z"/>
				<path class="st2" d="M268.1,311.7H100.2c-4.6,0-8.2-3.6-8.2-8.2s3.6-8.2,8.2-8.2h167.9c4.6,0,8.2,3.6,8.2,8.2
					S272.6,311.7,268.1,311.7z"/>
			</g>
		</g>
	</g>
</g>
</svg>
