<?xml version="1.0" encoding="utf-8"?>
<!-- Generator: Adobe Illustrator 22.1.0, SVG Export Plug-In . SVG Version: 6.00 Build 0)  -->
<svg version="1.1" id="Layer_1" xmlns="http://www.w3.org/2000/svg" xmlns:xlink="http://www.w3.org/1999/xlink" x="0px" y="0px"
	 viewBox="0 0 375 273" style="enable-background:new 0 0 375 273;" xml:space="preserve">
<style type="text/css">
	.st0{fill:#E0EFFA;}
	.st1{fill:#D2E6F7;}
	.st2{fill:#E5D4D4;}
</style>
<polygon class="st0" points="375,0 375,161.4 0,273 0,0 "/>
<title>control_3</title>
<g id="Layer_2_1_">
	<g id="Layer_2-2">
		<path class="st1" d="M156.7,66.2c-12.7,0-22.9-10.3-22.9-22.9c0-12.7,10.3-22.9,22.9-22.9c12.7,0,22.9,10.3,22.9,22.9
			c0,0,0,0,0,0.1C179.6,56,169.4,66.2,156.7,66.2C156.8,66.2,156.7,66.2,156.7,66.2z M156.7,30.5c-7.1,0-12.9,5.8-12.9,12.9
			s5.8,12.9,12.9,12.9c7.1,0,12.9-5.8,12.9-12.9l0,0C169.6,36.2,163.8,30.5,156.7,30.5z"/>
		<path class="st2" d="M112.5,105.2c0,7.1-5.7,12.9-12.8,12.9c-7.1,0-12.9-5.7-12.9-12.8c0-7.1,5.7-12.9,12.8-12.9h0.1
			C106.7,92.4,112.4,98.2,112.5,105.2z"/>
		<path class="st1" d="M99.6,82.4c-12.7,0-22.9,10.2-23,22.9c0,12.7,10.2,22.9,22.9,23c12.7,0,22.9-10.2,23-22.9v-0.1
			C122.5,92.6,112.2,82.4,99.6,82.4z M99.6,118.1c-7.1,0-12.9-5.7-12.9-12.8c0-7.1,5.7-12.9,12.8-12.9c7.1,0,12.9,5.7,12.9,12.8
			c0,0,0,0,0,0.1C112.5,112.3,106.7,118.1,99.6,118.1z"/>
		<path class="st1" d="M175.6,187c-12.7,0-22.9-10.2-23-22.9c0-12.7,10.2-22.9,22.9-23c12.7,0,22.9,10.2,23,22.9v0.1
			C198.4,176.7,188.2,187,175.6,187z M175.6,151.2c-7.1,0-12.9,5.7-12.9,12.8s5.7,12.9,12.8,12.9s12.9-5.7,12.9-12.8c0,0,0,0,0-0.1
			C188.4,157,182.7,151.3,175.6,151.2z"/>
		<path class="st1" d="M125.5,49.1H36.1c-2.8,0-5-2.2-5-5s2.2-5,5-5h89.4c2.8,0,5,2.2,5,5S128.3,49.1,125.5,49.1z"/>
		<path class="st1" d="M238.4,49.1h-51.9c-2.8,0-5-2.2-5-5s2.2-5,5-5h51.9c2.8,0,5,2.2,5,5S241.2,49.1,238.4,49.1z"/>
		<path class="st1" d="M66.7,109.1H36.1c-2.8,0-5-2.2-5-5s2.2-5,5-5h30.6c2.8,0,5,2.2,5,5S69.5,109.1,66.7,109.1z"/>
		<path class="st1" d="M238.4,109.1H132.6c-2.8,0-5-2.2-5-5s2.2-5,5-5h105.8c2.8,0,5,2.2,5,5S241.2,109.1,238.4,109.1z"/>
		<path class="st1" d="M238.4,169.1h-30.6c-2.8,0-5-2.2-5-5s2.2-5,5-5h30.6c2.8,0,5,2.2,5,5S241.2,169.1,238.4,169.1z"/>
		<path class="st1" d="M138.9,169.1H36.1c-2.8,0-5-2.2-5-5s2.2-5,5-5h102.8c2.8,0,5,2.2,5,5S141.6,169.1,138.9,169.1z"/>
	</g>
</g>
</svg>
