<?xml version="1.0" encoding="utf-8"?>
<!-- Generator: Adobe Illustrator 22.1.0, SVG Export Plug-In . SVG Version: 6.00 Build 0)  -->
<svg version="1.1" id="Layer_1" xmlns="http://www.w3.org/2000/svg" xmlns:xlink="http://www.w3.org/1999/xlink" x="0px" y="0px"
	 viewBox="0 0 768 511" style="enable-background:new 0 0 768 511;" xml:space="preserve">
<style type="text/css">
	.st0{fill:#E0EFFA;}
	.st1{clip-path:url(#SVGID_3_);}
	.st2{fill:#D2E6F7;}
	.st3{fill:#E5D4D4;}
</style>
<g>
	<g>
		<polygon id="SVGID_1_" class="st0" points="768,0 768,262.8 0,411 0,0 		"/>
	</g>
</g>
<title>control_3</title>
<g>
	<g>
		<defs>
			<polygon id="SVGID_2_" points="768,0 768,262.8 0,411 0,0 			"/>
		</defs>
		<clipPath id="SVGID_3_">
			<use xlink:href="#SVGID_2_"  style="overflow:visible;"/>
		</clipPath>
		<g id="Layer_2_1_" class="st1">
			<g id="Layer_2-2">
				<path class="st2" d="M329.9,147.9c-26,0-47-21.1-47-47c0-26,21.1-47,47-47c26,0,47,21.1,47,47c0,0,0,0,0,0.2
					C377,126.9,355.9,147.9,329.9,147.9C330.2,147.9,329.9,147.9,329.9,147.9z M329.9,74.6c-14.6,0-26.5,11.9-26.5,26.5
					s11.9,26.5,26.5,26.5s26.5-11.9,26.5-26.5l0,0C356.4,86.3,344.5,74.6,329.9,74.6z"/>
				<path class="st3" d="M239.2,227.9c0,14.6-11.7,26.5-26.2,26.5s-26.5-11.7-26.5-26.2s11.7-26.5,26.2-26.5h0.2
					C227.2,201.7,239,213.6,239.2,227.9z"/>
				<path class="st2" d="M212.6,181.1c-26,0-47,21-47.3,47c0,26,21,47,47,47.3c26,0,47-21,47.3-47v-0.2
					C259.7,202.1,238.6,181.1,212.6,181.1z M212.6,254.5c-14.6,0-26.5-11.7-26.5-26.2s11.7-26.5,26.2-26.5s26.5,11.7,26.5,26.2
					c0,0,0,0,0,0.2C239.2,242.6,227.2,254.5,212.6,254.5z"/>
				<path class="st2" d="M368.7,396c-26,0-47-21-47.3-47c0-26,21-47,47-47.3c26,0,47,21,47.3,47v0.2
					C415.6,374.8,394.6,396,368.7,396z M368.7,322.4c-14.6,0-26.5,11.7-26.5,26.2s11.7,26.5,26.2,26.5s26.5-11.7,26.5-26.3
					c0,0,0,0,0-0.2C395,334.4,383.3,322.6,368.7,322.4z"/>
				<path class="st2" d="M265.9,112.8H82.3c-5.8,0-10.3-4.5-10.3-10.3s4.5-10.3,10.3-10.3h183.6c5.8,0,10.3,4.5,10.3,10.3
					S271.6,112.8,265.9,112.8z"/>
				<path class="st2" d="M497.7,112.8H391.1c-5.8,0-10.3-4.5-10.3-10.3s4.5-10.3,10.3-10.3h106.6c5.8,0,10.3,4.5,10.3,10.3
					S503.5,112.8,497.7,112.8z"/>
				<path class="st2" d="M145,236H82.3c-5.8,0-10.3-4.5-10.3-10.3c0-5.7,4.5-10.3,10.3-10.3h62.9c5.8,0,10.3,4.5,10.3,10.3
					C155.4,231.4,150.8,236,145,236z"/>
				<path class="st2" d="M497.7,236H280.5c-5.8,0-10.3-4.5-10.3-10.3c0-5.7,4.5-10.3,10.3-10.3h217.3c5.8,0,10.3,4.5,10.3,10.3
					C508,231.4,503.5,236,497.7,236z"/>
				<path class="st2" d="M497.7,359.3h-62.9c-5.8,0-10.3-4.5-10.3-10.3s4.5-10.3,10.3-10.3h62.9c5.8,0,10.3,4.5,10.3,10.3
					S503.5,359.3,497.7,359.3z"/>
				<path class="st2" d="M293.4,359.3H82.3c-5.8,0-10.3-4.5-10.3-10.3s4.5-10.3,10.3-10.3h211.1c5.8,0,10.3,4.5,10.3,10.3
					S298.9,359.3,293.4,359.3z"/>
			</g>
		</g>
	</g>
</g>
</svg>
