<?xml version="1.0" encoding="utf-8"?>
<!-- Generator: Adobe Illustrator 22.1.0, SVG Export Plug-In . SVG Version: 6.00 Build 0)  -->
<svg version="1.1" id="Layer_1" xmlns="http://www.w3.org/2000/svg" xmlns:xlink="http://www.w3.org/1999/xlink" x="0px" y="0px"
	 viewBox="0 0 376 451" style="enable-background:new 0 0 376 451;" xml:space="preserve">
<style type="text/css">
	.st0{fill:#E0EFFA;}
	.st1{fill:#D1E6F6;}
	.st2{fill:#E4D4D4;}
</style>
<polygon class="st0" points="374.6,0 374.6,349.3 -0.4,451 -0.4,0 "/>
<title>control_3</title>
<path class="st1" d="M218.5,69.6c0.3,0,0.5-0.1,0.7-0.2l-0.1,0.1C218.9,69.6,218.7,69.6,218.5,69.6z"/>
<g>
	<path class="st1" d="M210.3,67.7v0.2c0,0.4-0.1,0.8-0.2,1.2c-0.1,0.3-0.1,0.5-0.2,0.7c-0.4,1-1.1,1.8-2,2.5
		c-0.3,0.2-0.6,0.4-0.9,0.5c-0.3,0.1-0.5,0.2-0.7,0.2c-0.4,0.2-0.8,0.2-1.3,0.2h-26.4c-2.9,0-5.3-2.4-5.3-5.3c0-2.9,2.4-5.3,5.3-5.3
		h12.9c-14.7-11.7-33.1-18.2-52-18.2c-46.1,0-83.6,37.5-83.6,83.6c0,16.2,4.7,32,13.5,45.6c1.6,2.4,0.9,5.7-1.5,7.3
		c-0.9,0.6-1.9,0.8-2.8,0.8c-1.7,0-3.4-0.8-4.4-2.4c-10-15.3-15.2-33.1-15.2-51.3c0-51.9,42.2-94.2,94.1-94.2
		c21.8,0,43,7.7,59.7,21.4l-0.5-13.7c-0.1-2.9,2.2-5.3,5.1-5.4c2.8-0.3,5.3,2.2,5.4,5.1L210.3,67.7z"/>
	<path class="st1" d="M234.5,131.4c0,51.9-42.2,94.1-94.1,94.1c-21.8,0-43-7.6-59.7-21.4l0.5,13.6c0.1,2.9-2.2,5.4-5.1,5.5
		c-2.8,0.2-5.4-2.2-5.5-5.1l-0.9-26.4v-0.2c0-0.4,0.1-0.8,0.2-1.2c0.1-0.3,0.1-0.5,0.2-0.7c0.2-0.6,0.6-1.2,1-1.6
		c0.2-0.2,0.4-0.4,0.6-0.5c0.4-0.4,0.8-0.6,1.3-0.8c0.6-0.3,1.3-0.4,2.1-0.4h26.4c3,0,5.3,2.3,5.3,5.3c0,2.9-2.3,5.3-5.3,5.3H88.4
		c14.7,11.7,33.1,18.1,52,18.1c46.1,0,83.6-37.5,83.6-83.6c0-16.3-4.6-32.1-13.5-45.6c-1.6-2.4-0.9-5.7,1.5-7.3
		c2.4-1.6,5.7-0.9,7.3,1.5C229.3,95.3,234.5,113.1,234.5,131.4z"/>
	<path class="st1" d="M75,186.3c-0.7,0-1.4,0.2-2,0.4l0.1-0.1C73.6,186.4,74.3,186.3,75,186.3z"/>
	<path class="st1" d="M75.6,186.3c-0.2,0-0.4,0-0.6,0c0,0,0,0,0,0H75.6z"/>
	<path class="st2" d="M139.9,166.6v-27.3c0-2.8-2.3-5.2-5.2-5.3l-17.2-0.2l20.3-42.4l0.6,27.1c0.1,2.9,2.4,5.2,5.3,5.2h17.8
		L139.9,166.6z"/>
	<path class="st1" d="M174.6,115.7c-0.9-1.6-2.6-2.5-4.5-2.5h-21.2l-1.1-44c-0.1-2.4-1.7-4.5-4.1-5c-2.4-0.5-4.8,0.7-5.9,2.8
		l-33.4,69.7c-0.8,1.6-0.7,3.5,0.3,5.1c0.9,1.6,2.6,2.5,4.4,2.5l20.2,0.2v44.2c0,2.4,1.7,4.6,4.1,5.1c0.4,0.1,0.8,0.2,1.2,0.2
		c2,0,3.8-1.1,4.7-2.9l35.5-70.2C175.7,119.2,175.6,117.2,174.6,115.7z M139.9,166.6v-27.3c0-2.8-2.3-5.2-5.2-5.3l-17.2-0.2
		l20.3-42.4l0.6,27.1c0.1,2.9,2.4,5.2,5.3,5.2h17.8L139.9,166.6z"/>
</g>
</svg>
