<?xml version="1.0" encoding="utf-8"?>
<!-- Generator: Adobe Illustrator 22.1.0, SVG Export Plug-In . SVG Version: 6.00 Build 0)  -->
<svg version="1.1" id="Layer_1" xmlns="http://www.w3.org/2000/svg" xmlns:xlink="http://www.w3.org/1999/xlink" x="0px" y="0px"
	 viewBox="0 0 768 511" style="enable-background:new 0 0 768 511;" xml:space="preserve">
<style type="text/css">
	.st0{fill:#E0EFFA;}
	.st1{fill:#D1E6F6;}
	.st2{clip-path:url(#SVGID_3_);}
	.st3{fill:#E4D4D4;}
</style>
<g>
	<g>
		<polygon id="SVGID_1_" class="st0" points="768,0 768,326.8 0,511 0,0 		"/>
	</g>
</g>
<title>control_3</title>
<path class="st1" d="M455,109.2c0.3,0,0.5-0.1,0.8-0.2l-0.1,0.1C455.5,109.2,455.2,109.2,455,109.2z"/>
<g>
	<defs>
		<polygon id="SVGID_2_" points="768,0 768,326.8 0,511 0,0 		"/>
	</defs>
	<clipPath id="SVGID_3_">
		<use xlink:href="#SVGID_2_"  style="overflow:visible;"/>
	</clipPath>
	<g class="st2">
		<path class="st1" d="M402.4,109.8v0.3c0,1-0.1,1.7-0.3,2.6c-0.1,0.5-0.2,1.2-0.4,1.6c-0.9,2.3-2.4,4.1-4.3,5.5
			c-0.8,0.3-1.3,0.9-2.1,1.1c-0.5,0.2-1.1,0.4-1.6,0.4c-1,0.3-1.8,0.4-2.9,0.4h-59c-6.5,0-11.8-5.3-11.8-11.8
			c0-6.5,5.3-11.8,11.8-11.8h28.9c-32.9-26.1-74.1-40.6-116.4-40.6c-103.1,0-187,84-187,187.2c0,36.4,10.5,71.6,30.2,102.1
			c3.6,5.4,2.1,12.8-3.5,16.2c-2.1,1.3-4.2,1.8-6.4,1.8c-3.9,0-7.7-1.8-10-5.3c-22.3-34.2-34.1-74-34.1-114.9
			C33.5,128.6,128.1,34,244.2,34c48.8,0,96.2,17.2,133.8,47.9l-1.1-30.5c-0.2-6.5,4.9-11.9,11.5-12.1c6.4-0.5,11.9,4.9,12.1,11.5
			L402.4,109.8z"/>
		<path class="st1" d="M456.6,252.3C456.6,368.4,362,463,245.9,463c-48.8,0-96.2-17.1-133.8-47.8l1.1,30.4c0.2,6.5-4.9,12-11.4,12.2
			c-6.4,0.3-12-5-12.2-11.5l-2.1-59.1V387c0-1,0.1-1.7,0.3-2.6c0.1-0.5,0.2-1.2,0.4-1.6c0.4-1.4,1.3-2.6,2.3-3.7
			c0.3-0.4,0.9-0.9,1.3-1.2c0.9-0.9,1.7-1.4,2.8-1.7c1.4-0.5,2.9-1,4.5-1h59c6.6,0,11.8,5.2,11.8,11.8c0,6.5-5.2,11.8-11.8,11.8
			h-28.9c32.8,26.1,74,40.6,116.3,40.6c103.1,0,187-83.9,187-187c0-36.5-10.4-71.8-30.2-102.1c-3.6-5.4-2.1-12.8,3.5-16.2
			c5.4-3.6,12.8-2.1,16.2,3.5C444.7,171.7,456.6,211.3,456.6,252.3z"/>
		<path class="st1" d="M99.4,375.2c-1.6,0-3.1,0.3-4.5,1l0.1-0.1C96.4,375.4,98,375.2,99.4,375.2z"/>
		<path class="st1" d="M100.8,375.2c-0.4,0-0.9,0-1.3,0l0,0H100.8z"/>
		<path class="st3" d="M244.7,331.1V270c0-6.4-5.2-11.7-11.7-11.8l-38.4-0.3l45.6-95l1.4,60.8c0.2,6.5,5.4,11.6,11.8,11.6h39.9
			L244.7,331.1z"/>
		<path class="st1" d="M322.5,217.1c-2.2-3.6-5.8-5.6-10.1-5.6h-47.5l-2.3-98.5c-0.1-5.4-3.9-10.1-9.2-11.3
			c-5.4-1.2-10.8,1.5-13.2,6.4l-74.8,156.1c-1.7,3.7-1.5,7.9,0.5,11.4c2.2,3.6,5.8,5.5,10,5.6l45.3,0.3v98.9
			c0,5.4,3.8,10.3,9.1,11.5c1,0.2,1.7,0.3,2.7,0.3c4.3,0,8.4-2.5,10.5-6.5l79.5-157.2C324.9,224.9,324.6,220.6,322.5,217.1z
			 M244.7,331.1V270c0-6.4-5.2-11.7-11.7-11.8l-38.4-0.3l45.6-95l1.4,60.8c0.2,6.5,5.4,11.6,11.8,11.6h39.9L244.7,331.1z"/>
	</g>
</g>
</svg>
