<?xml version="1.0" encoding="utf-8"?>
<!-- Generator: Adobe Illustrator 22.1.0, SVG Export Plug-In . SVG Version: 6.00 Build 0)  -->
<svg version="1.1" id="Layer_1" xmlns="http://www.w3.org/2000/svg" xmlns:xlink="http://www.w3.org/1999/xlink" x="0px" y="0px"
	 viewBox="0 0 1442 511" style="enable-background:new 0 0 1442 511;" xml:space="preserve">
<style type="text/css">
	.st0{fill:#E0EFFA;}
	.st1{clip-path:url(#SVGID_2_);}
	.st2{fill:#D1E6F6;}
	.st3{fill:#E4D4D4;}
</style>
<polygon class="st0" points="1442,0 1442,210 0,511 0,0 "/>
<title>control_3</title>
<g>
	<defs>
		<polygon id="SVGID_1_" points="1442,0 1442,210 0,511 0,0 		"/>
	</defs>
	<clipPath id="SVGID_2_">
		<use xlink:href="#SVGID_1_"  style="overflow:visible;"/>
	</clipPath>
	<g class="st1">
		<path class="st2" d="M452.4,125.4c0.5,0,0.9-0.3,1.6-0.4l-0.1,0.1C453.4,125.2,453,125.4,452.4,125.4z"/>
		<g>
			<path class="st2" d="M460.9,114.2v0.3c0,0.8-0.1,1.8-0.3,2.4c-0.1,0.5-0.3,1.1-0.4,1.6c-0.8,2.2-2.3,3.9-4,5.3
				c-0.7,0.3-1.2,0.8-1.9,0.9c-0.5,0.3-0.9,0.4-1.6,0.4c-0.8,0.3-1.9,0.4-2.8,0.4h-56.1c-6.2,0-11.2-5.1-11.2-11.2
				c0-6.1,5.1-11.2,11.2-11.2h27.5c-31.2-25-70.3-38.7-110.6-38.7c-98.1,0-177.8,79.9-177.8,178c0,34.5,10,68.1,28.7,97
				c3.4,5.1,1.9,12-3.2,15.5c-1.9,1.2-3.9,1.9-6.1,1.9c-3.6,0-7.3-1.9-9.3-5.1c-21.3-32.5-32.5-70.3-32.5-109.3
				C110.3,131.9,200.2,42,310.6,42c46.5,0,91.5,16.5,127.1,45.5l-0.9-29c-0.3-6.2,4.6-11.3,10.9-11.5c6.1-0.5,11.3,4.6,11.5,10.9
				L460.9,114.2z"/>
			<path class="st2" d="M512.4,249.8c0,110.5-89.9,200.2-200.2,200.2c-46.5,0-91.5-16.3-127.1-45.3l0.9,28.9
				c0.3,6.2-4.6,11.5-10.8,11.6c-6.1,0.3-11.5-4.7-11.6-10.9l-1.9-56.1v-0.3c0-0.8,0.1-1.8,0.3-2.4c0.1-0.5,0.3-1.1,0.4-1.6
				c0.4-1.2,1.2-2.4,2.2-3.5c0.3-0.4,0.8-0.8,1.2-1.1c0.8-0.8,1.8-1.2,2.7-1.8c1.2-0.5,2.8-0.8,4.5-0.8h56.1c6.2,0,11.2,5,11.2,11.2
				c0,6.2-5,11.2-11.2,11.2h-27.5c31.2,24.8,70.3,38.6,110.6,38.6c98.1,0,177.8-79.9,177.8-177.8c0-34.5-10-68.3-28.7-97
				c-3.4-5.1-1.9-12,3.2-15.5c5.1-3.4,12-1.9,15.5,3.2C501.2,173,512.4,210.8,512.4,249.8z"/>
			<path class="st2" d="M172.8,366.6c-1.6,0-3,0.3-4.5,0.8l0.1-0.1C169.8,366.8,171.3,366.6,172.8,366.6z"/>
			<path class="st2" d="M174,366.6c-0.4,0-0.8,0-1.2,0l0,0H174z"/>
			<path class="st3" d="M311,324.7v-58.2c0-6.1-5-11.1-11.1-11.2l-36.6-0.3l43.3-90.4l1.2,57.7c0.3,6.2,5.1,11.1,11.2,11.1H357
				L311,324.7z"/>
			<path class="st2" d="M384.9,216.3c-2-3.4-5.7-5.4-9.4-5.4h-45.2l-2.3-93.6c-0.1-5.1-3.6-9.4-8.8-10.7c-5.1-1.1-10.4,1.5-12.7,6.1
				L235.3,261c-1.8,3.5-1.5,7.6,0.5,10.8c2,3.4,5.7,5.3,9.3,5.4l43.2,0.3v94c0,5.1,3.5,9.8,8.6,10.9c0.8,0.3,1.8,0.3,2.6,0.3
				c4,0,8.1-2.4,10-6.2L385,227C387.2,223.7,386.9,219.6,384.9,216.3z M311,324.7v-58.2c0-6.1-5-11.1-11.1-11.2l-36.6-0.3l43.3-90.4
				l1.2,57.7c0.3,6.2,5.1,11.1,11.2,11.1H357L311,324.7z"/>
		</g>
	</g>
</g>
</svg>
