<?xml version="1.0" encoding="utf-8"?>
<!-- Generator: Adobe Illustrator 22.1.0, SVG Export Plug-In . SVG Version: 6.00 Build 0)  -->
<svg version="1.1" id="Layer_1" xmlns="http://www.w3.org/2000/svg" xmlns:xlink="http://www.w3.org/1999/xlink" x="0px" y="0px"
	 viewBox="0 0 375 273" style="enable-background:new 0 0 375 273;" xml:space="preserve">
<style type="text/css">
	.st0{fill:#E0EFFA;}
	.st1{clip-path:url(#SVGID_2_);}
	.st2{fill:#D2E6F7;}
	.st3{fill:#E5D4D4;}
</style>
<title>heat_pump_4</title>
<polygon class="st0" points="375,0 375,161.4 0,273 0,0 "/>
<g>
	<g>
		<defs>
			<polygon id="SVGID_1_" points="375,0 375,161.4 0,273 0,0 			"/>
		</defs>
		<clipPath id="SVGID_2_">
			<use xlink:href="#SVGID_1_"  style="overflow:visible;"/>
		</clipPath>
		<g id="Layer_2_1_" class="st1">
			<g id="Layer_2-2">
				<path class="st2" d="M130,36c-2.5,0-4.5-2-4.5-4.5c0.6-4.5,3.3-8.6,7.3-10.8c3.9-3.1,7.6-6.1,7.6-11.5c0-4.5-2.3-7-6.1-10.9
					c-5.2-4.2-8.4-10.5-8.7-17.2c0-2.5,2-4.5,4.5-4.5s4.5,2,4.5,4.5c0,4.5,2.3,7,6.1,10.9c5.2,4.2,8.4,10.5,8.7,17.2
					c-0.4,7.6-4.5,14.5-10.9,18.5c-1.3,1-4,3.2-4,3.9C134.5,34,132.5,36,130,36z"/>
				<path class="st2" d="M100.8,36c-2.5,0-4.5-2-4.5-4.5c0.6-4.5,3.3-8.6,7.3-10.8c4-3.1,7.6-6.1,7.6-11.5c0-4.5-2.3-7-6.1-10.9
					c-5.2-4.2-8.4-10.5-8.7-17.2c0-2.5,2-4.5,4.5-4.5s4.5,2,4.5,4.5c0,4.5,2.3,7,6.1,10.9c5.2,4.2,8.4,10.5,8.7,17.2
					c-0.4,7.6-4.5,14.5-10.9,18.5c-1.3,1-4,3.2-4,3.9C105.3,34,103.2,36,100.8,36z"/>
				<path class="st2" d="M71.5,36C69,36,67,34,67,31.5c0.6-4.5,3.3-8.6,7.3-10.8c3.9-3.1,7.6-6.1,7.6-11.5c0-4.5-2.3-7-6.1-10.9
					c-5.2-4.2-8.4-10.5-8.7-17.2c0-2.5,2-4.5,4.5-4.5s4.5,2,4.5,4.5c0,4.5,2.3,7,6.1,10.9c5.2,4.2,8.4,10.5,8.7,17.2
					c-0.4,7.5-4.5,14.4-10.9,18.4c-1.3,1-4,3.2-4,3.9C76,34,74,36,71.5,36z"/>
				<path class="st2" d="M248.3,192.4H140.4v-15.7c0-1.7-0.9-3.2-2.4-4c-1.4-0.7-3.1-0.6-4.5,0.2L102,194.1c-1.3,0.9-2,2.3-2,3.9
					c0,1.5,0.9,2.9,2.2,3.7l31.5,19.3c0.7,0.4,1.5,0.6,2.3,0.6s1.5-0.2,2.2-0.6c1.4-0.8,2.3-2.3,2.3-3.9v-15.7h107.9
					c2.5,0,4.5-2,4.5-4.5S250.9,192.4,248.3,192.4L248.3,192.4L248.3,192.4z M131.4,209.1l-18.7-11.5l18.7-12.5V209.1z"/>
				<polygon class="st3" points="131.3,185.1 131.3,209.1 112.7,197.6 				"/>
				<path class="st2" d="M201.4,126.5c-0.7-1.5-2.1-2.5-3.7-2.6l-16.8-1.4c-0.6-41.4-34.5-74.5-75.9-74S30.5,83,31.1,124.3
					c0.4,33.1,22.5,62,54.3,71.1c0.4,0,0.8,0,1.2,0c2.1,0.1,3.9-1.3,4.5-3.3c0.7-2.4-0.7-4.9-3.1-5.6l0,0
					c-35-9.9-55.4-46.3-45.5-81.3s46.3-55.4,81.3-45.5c27.9,7.9,47.3,33,48,62l-14.5-1.3c-2.5-0.3-4.7,1.4-5,3.9
					c-0.1,1,0.1,1.9,0.5,2.8l18.4,33.1c0.7,1.4,2.1,2.2,3.6,2.3h0.3c1.4,0,2.8-0.7,3.6-1.8l21.9-29.7
					C201.7,129.7,202,128,201.4,126.5z M176,151.2l-12.5-22.5l27.2,2.3L176,151.2z"/>
				<polygon class="st2" points="190.8,131.2 176,151.2 163.5,128.9 				"/>
				<polygon class="st3" points="190.8,131.2 176,151.2 163.5,128.9 				"/>
			</g>
		</g>
	</g>
</g>
</svg>
