<?xml version="1.0" encoding="utf-8"?>
<!-- Generator: Adobe Illustrator 22.1.0, SVG Export Plug-In . SVG Version: 6.00 Build 0)  -->
<svg version="1.1" id="Layer_1" xmlns="http://www.w3.org/2000/svg" xmlns:xlink="http://www.w3.org/1999/xlink" x="0px" y="0px"
	 viewBox="0 0 768 511" style="enable-background:new 0 0 768 511;" xml:space="preserve">
<style type="text/css">
	.st0{fill:#E0EFFA;}
	.st1{clip-path:url(#SVGID_3_);}
	.st2{fill:#D2E6F7;}
	.st3{fill:#E5D4D4;}
</style>
<title>heat_pump_4</title>
<g>
	<g>
		<polygon id="SVGID_1_" class="st0" points="768,0 768,262.8 0,411 0,0 		"/>
	</g>
</g>
<g>
	<g>
		<defs>
			<polygon id="SVGID_2_" points="768,0 768,262.8 0,411 0,0 			"/>
		</defs>
		<clipPath id="SVGID_3_">
			<use xlink:href="#SVGID_2_"  style="overflow:visible;"/>
		</clipPath>
		<g id="Layer_2_2_" class="st1">
			<g id="Layer_2_1_">
				<g id="Layer_2-2">
					<path class="st2" d="M269.5,39.5c-4.9,0-8.7-3.9-8.7-8.7c1.2-8.7,6.4-16.7,14.2-21c7.6-6,14.8-11.9,14.8-22.4
						c0-8.7-4.5-13.6-11.9-21.2C267.8-42,261.6-54.2,261-67.2c0-4.9,3.9-8.7,8.7-8.7c4.9,0,8.7,3.9,8.7,8.7
						c0,8.7,4.5,13.6,11.9,21.2c10.1,8.2,16.3,20.4,16.9,33.4c-0.8,14.8-8.7,28.2-21.2,36c-2.5,1.9-7.8,6.2-7.8,7.6
						C278.3,35.6,274.4,39.5,269.5,39.5z"/>
					<path class="st2" d="M212.8,39.5c-4.9,0-8.7-3.9-8.7-8.7c1.2-8.7,6.4-16.7,14.2-21c7.8-6,14.8-11.9,14.8-22.4
						c0-8.7-4.5-13.6-11.9-21.2c-10.1-8.2-16.3-20.4-16.9-33.4c0-4.9,3.9-8.7,8.7-8.7s8.7,3.9,8.7,8.7c0,8.7,4.5,13.6,11.9,21.2
						c10.1,8.2,16.3,20.4,16.9,33.4c-0.8,14.8-8.7,28.2-21.2,36c-2.5,1.9-7.8,6.2-7.8,7.6C221.5,35.6,217.5,39.5,212.8,39.5z"/>
					<path class="st2" d="M155.8,39.5c-4.9,0-8.7-3.9-8.7-8.7c1.2-8.7,6.4-16.7,14.2-21c7.6-6,14.8-11.9,14.8-22.4
						c0-8.7-4.5-13.6-11.9-21.2c-10.1-8.2-16.3-20.4-16.9-33.4c0-4.9,3.9-8.7,8.7-8.7c4.9,0,8.7,3.9,8.7,8.7
						c0,8.7,4.5,13.6,11.9,21.2c10.1,8.2,16.3,20.4,16.9,33.4c-0.8,14.6-8.7,28-21.2,35.8c-2.5,1.9-7.8,6.2-7.8,7.6
						C164.6,35.6,160.7,39.5,155.8,39.5z"/>
					<path class="st2" d="M499.5,343.5H289.8V313c0-3.3-1.7-6.2-4.7-7.8c-2.7-1.4-6-1.2-8.7,0.4l-61.2,41.2
						c-2.5,1.7-3.9,4.5-3.9,7.6c0,2.9,1.7,5.6,4.3,7.2l61.2,37.5c1.4,0.8,2.9,1.2,4.5,1.2s2.9-0.4,4.3-1.2c2.7-1.6,4.5-4.5,4.5-7.6
						V361h209.7c4.9,0,8.7-3.9,8.7-8.7c0-4.9-3.9-8.7-8.7-8.7L499.5,343.5L499.5,343.5z M272.3,376L236,353.6l36.3-24.3V376z"/>
					<polygon class="st3" points="272.1,329.3 272.1,376 235.9,353.6 					"/>
					<path class="st2" d="M408.3,215.4c-1.4-2.9-4.1-4.9-7.2-5.1l-32.7-2.7c-1.1-80.4-67-144.7-147.4-143.8
						c-80.4,0.9-144.8,67.1-143.7,147.4c0.8,64.3,43.7,120.5,105.5,138.2c0.8,0,1.6,0,2.3,0c4.1,0.2,7.6-2.5,8.7-6.4
						c1.4-4.7-1.4-9.5-6-10.9l0,0c-68-19.2-107.7-90-88.4-158s90-107.7,158-88.4c54.2,15.4,91.9,64.1,93.3,120.5l-28.2-2.5
						c-4.9-0.6-9.1,2.7-9.7,7.6c-0.2,1.9,0.2,3.7,1,5.4l35.8,64.3c1.4,2.7,4.1,4.3,7,4.5h0.6c2.7,0,5.4-1.4,7-3.5l42.6-57.7
						C408.9,221.7,409.5,218.3,408.3,215.4z M359,263.4l-24.3-43.7l52.9,4.5L359,263.4z"/>
					<polygon class="st2" points="387.7,224.6 359,263.4 334.7,220.1 					"/>
					<polygon class="st3" points="387.7,224.6 359,263.4 334.7,220.1 					"/>
				</g>
			</g>
		</g>
	</g>
</g>
</svg>
