<?xml version="1.0" encoding="utf-8"?>
<!-- Generator: Adobe Illustrator 22.1.0, SVG Export Plug-In . SVG Version: 6.00 Build 0)  -->
<svg version="1.1" id="Layer_1" xmlns="http://www.w3.org/2000/svg" xmlns:xlink="http://www.w3.org/1999/xlink" x="0px" y="0px"
	 viewBox="0 0 375 273" style="enable-background:new 0 0 375 273;" xml:space="preserve">
<style type="text/css">
	.st0{fill:#E0EFFA;}
	.st1{clip-path:url(#SVGID_2_);}
	.st2{fill:#E4D4D4;}
	.st3{fill:#D1E6F6;}
</style>
<polygon class="st0" points="375,0 375,161.4 0,273 0,0 "/>
<title>control_3</title>
<g>
	<g>
		<defs>
			<polygon id="SVGID_1_" points="375,0 375,161.4 0,273 0,0 			"/>
		</defs>
		<clipPath id="SVGID_2_">
			<use xlink:href="#SVGID_1_"  style="overflow:visible;"/>
		</clipPath>
		<g class="st1">
			<path class="st2" d="M173.3,227h-43.5c0.2-0.1,0.4-0.3,0.5-0.4c0.9-1.1,1.6-2.4,1.6-3.8l-0.2-74.4h39.4v74.4
				C171.2,224.5,172.1,226,173.3,227z"/>
			<path class="st3" d="M284.3,139.6c-1.9,2.3-5.3,2.6-7.6,0.7L236.8,107v115.6c0,2.9-2.4,5.4-5.4,5.4h-54.8c-1.3,0-2.4-0.4-3.3-1.2
				c-1.3-0.9-2.1-2.5-2.1-4.2v-74.4h-39.4l0.2,74.4c0,1.4-0.6,2.8-1.6,3.8c-0.2,0.2-0.4,0.3-0.5,0.4c-0.9,0.7-2.1,1.2-3.3,1.2H71.9
				c-2.9,0-5.4-2.4-5.4-5.4V121.2c0-2.9,2.4-5.4,5.4-5.4c2.9,0,5.4,2.4,5.4,5.4v96h44l-0.2-74.4c0-1.5,0.5-2.8,1.6-3.8
				s2.4-1.6,3.8-1.6h50.2c3.1,0,5.4,2.4,5.4,5.4v74.4h44V98.1l-72.7-60.4L27.7,140.4c-0.9,0.8-2.2,1.3-3.4,1.3c-1.6,0-3.2-0.7-4.1-2
				c-1.9-2.3-1.6-5.7,0.7-7.6l129-105.5c2-1.6,4.8-1.6,6.8,0.1l69.2,57.6V43.5c0-2.9,2.4-5.4,5.4-5.4c3.1,0,5.4,2.4,5.4,5.4v49.7
				l46.7,38.9C285.9,133.9,286.2,137.3,284.3,139.6z"/>
		</g>
	</g>
</g>
</svg>
