<?xml version="1.0" encoding="utf-8"?>
<!-- Generator: Adobe Illustrator 22.1.0, SVG Export Plug-In . SVG Version: 6.00 Build 0)  -->
<svg version="1.1" id="Layer_1" xmlns="http://www.w3.org/2000/svg" xmlns:xlink="http://www.w3.org/1999/xlink" x="0px" y="0px"
	 viewBox="0 0 376 451" style="enable-background:new 0 0 376 451;" xml:space="preserve">
<style type="text/css">
	.st0{fill:#E0EFFA;}
	.st1{fill:#E4D4D4;}
	.st2{fill:#D1E6F6;}
</style>
<polygon class="st0" points="374.6,0 374.6,349.3 -0.4,451 -0.4,0 "/>
<title>control_3</title>
<g>
	<path class="st1" d="M166.1,216.9h-41.3c0.2-0.1,0.4-0.3,0.5-0.4c0.9-1,1.5-2.3,1.5-3.6l-0.2-70.7h37.4v70.7
		C164.1,214.5,164.9,216,166.1,216.9z"/>
	<path class="st2" d="M271.5,133.9c-1.8,2.2-5,2.5-7.2,0.7L226.4,103v109.8c0,2.8-2.3,5.1-5.1,5.1h-52.1c-1.2,0-2.3-0.4-3.1-1.1
		c-1.2-0.9-2-2.4-2-4v-70.7h-37.4l0.2,70.7c0,1.3-0.6,2.7-1.5,3.6c-0.2,0.2-0.4,0.3-0.5,0.4c-0.9,0.7-2,1.1-3.1,1.1h-52
		c-2.8,0-5.1-2.3-5.1-5.1v-96.4c0-2.8,2.3-5.1,5.1-5.1c2.8,0,5.1,2.3,5.1,5.1v91.2h41.8l-0.2-70.7c0-1.4,0.5-2.7,1.5-3.6
		s2.3-1.5,3.6-1.5h47.7c2.9,0,5.1,2.3,5.1,5.1v70.7h41.8V94.5l-69.1-57.4L27.8,134.6c-0.9,0.8-2.1,1.2-3.2,1.2c-1.5,0-3-0.7-3.9-1.9
		c-1.8-2.2-1.5-5.4,0.7-7.2L143.9,26.5c1.9-1.5,4.6-1.5,6.5,0.1l65.7,54.7V42.6c0-2.8,2.3-5.1,5.1-5.1c2.9,0,5.1,2.3,5.1,5.1v47.2
		l44.4,37C273,128.5,273.3,131.7,271.5,133.9z"/>
</g>
</svg>
