<?xml version="1.0" encoding="utf-8"?>
<!-- Generator: Adobe Illustrator 22.1.0, SVG Export Plug-In . SVG Version: 6.00 Build 0)  -->
<svg version="1.1" id="Layer_1" xmlns="http://www.w3.org/2000/svg" xmlns:xlink="http://www.w3.org/1999/xlink" x="0px" y="0px"
	 viewBox="0 0 1442 511" style="enable-background:new 0 0 1442 511;" xml:space="preserve">
<style type="text/css">
	.st0{fill:#E0EFFA;}
	.st1{clip-path:url(#SVGID_2_);}
	.st2{fill:#E5D4D4;}
	.st3{fill:#D2E6F7;}
</style>
<title>solar_3</title>
<polygon class="st0" points="1442,0 1442,90 0,391 0,0 "/>
<g>
	<defs>
		<polygon id="SVGID_1_" points="1442,0 1442,90 0,391 0,0 		"/>
	</defs>
	<clipPath id="SVGID_2_">
		<use xlink:href="#SVGID_1_"  style="overflow:visible;"/>
	</clipPath>
	<g id="Layer_2_3_" class="st1">
		<g id="Layer_2-2_2_">
			<path class="st2" d="M279.6,169.4c-18.4,13.3-31.4,33.1-36.1,55.5c-12.8,3.3-24.4,9.7-34,18.9c-6.4,5.9-11.3,13.2-14.4,21.1
				c-9.5-11.6-14.6-26-14.6-40.9c0-35.7,29-64.7,64.7-64.7C257.4,159.3,269.4,162.8,279.6,169.4z"/>
			<path class="st3" d="M240.4,123.6c-4.7,0-8.7-3.8-8.7-8.7V75.7c0-4.7,3.8-8.7,8.7-8.7s8.7,3.8,8.7,8.7v39.2
				C249.1,119.8,245.1,123.6,240.4,123.6z"/>
			<path class="st3" d="M305.2,141.4c-2.1,0-4.2-0.9-5.7-2.3c-3.5-3.3-3.6-8.7-0.5-12.1l25.1-27.6c3.3-3.5,8.7-3.8,12.1-0.5
				c3.5,3.3,3.8,8.7,0.5,12.1l-25.3,27.6C310.1,140.4,307.7,141.4,305.2,141.4z"/>
			<path class="st3" d="M165.7,151.3c-2.3,0-4.5-0.9-6.1-2.6L132.2,121c-3.3-3.3-3.3-8.8,0-12.1c3.3-3.5,8.8-3.5,12.1,0l0,0
				l27.4,27.4c3.5,3.3,3.5,8.8,0,12.1l0,0C170.2,150.1,168.1,151.1,165.7,151.3z"/>
			<path class="st3" d="M138.3,216.7H95.8c-4.7,0-8.7-3.8-8.7-8.7s3.8-8.7,8.7-8.7h42.5c4.7,0,8.7,3.8,8.7,8.7
				S143.2,216.7,138.3,216.7z"/>
			<path class="st3" d="M448.8,244.8c-10.4-5.5-21.8-8.3-33.6-8.1h-1.4c-11.1-0.9-22,2.1-31,8.7c-11.3,8.1-17.7,21.5-17.3,35.4
				c0.3,4.7,4.5,8.3,9.4,8c4.7-0.3,8.3-4.5,8-9.4l0,0c0-8,4-15.4,10.4-20.1c6.1-4.3,13.5-6.1,20.8-5.2h1.4c9-0.3,17.9,1.7,25.8,5.9
				c11.1,6.9,17.2,19.6,15.8,32.6c0.7,12.7-3.8,25.1-12.5,34.5c-9.9,8.5-22.5,13.2-35.5,13.2h-224c-2.9-0.7-16.1-4.9-15.8-24.4
				c-0.2-5.2,1.9-10.2,5.5-14c7.3-5.4,16.3-8.1,25.5-7.6c2.6,0.2,5-1,6.8-2.9c1.7-1.9,2.4-4.5,2.1-7.1c-0.5-10.7,4-21,12.1-27.9
				c8.5-8,19.1-13.3,30.5-15.4c4-0.3,7.3-3.5,7.8-7.6c0-1.9,4.9-39.5,38.8-54.4l1-0.5c9.7-4,20.1-5.9,30.5-5.7
				c59.5,0.3,68.1,42.8,68.1,44.9c0.9,4.7,5.4,8,10.1,7.3c4.7-0.9,8-5.4,7.3-10.1c0-0.5-10.4-59.1-85.3-59.1
				c-11.1-0.2-22.4,1.7-32.9,5.2c-35-28.6-86.7-23.6-115.3,11.4c-12,14.6-18.5,32.9-18.5,52c-0.2,20.1,7.3,39.7,20.8,54.6
				c-7.8,1.7-15.1,5.4-21.1,10.6c-7.1,6.8-11.1,16.1-11.1,25.8c-2.1,19.8,10.9,38,30.3,42.3h226.2c17.3-0.2,34-6.6,47-18
				c12.3-12.7,18.7-29.6,17.9-47.2C473.2,264.7,460,251.2,448.8,244.8z M180.6,224c0-35.7,29-64.7,64.7-64.7
				c12.3,0,24.3,3.5,34.5,10.1c-18.4,13.3-31.4,33.1-36.1,55.5c-12.8,3.3-24.4,9.7-34,18.9c-6.4,5.9-11.3,13.2-14.4,21.1
				C185.8,253.4,180.6,238.9,180.6,224z"/>
		</g>
	</g>
</g>
</svg>
