<?xml version="1.0" encoding="utf-8"?>
<!-- Generator: Adobe Illustrator 22.1.0, SVG Export Plug-In . SVG Version: 6.00 Build 0)  -->
<svg version="1.1" id="Layer_1" xmlns="http://www.w3.org/2000/svg" xmlns:xlink="http://www.w3.org/1999/xlink" x="0px" y="0px"
	 viewBox="0 0 768 511" style="enable-background:new 0 0 768 511;" xml:space="preserve">
<style type="text/css">
	.st0{fill:#E0EFFA;}
	.st1{fill:#D1E6F6;}
	.st2{clip-path:url(#SVGID_3_);}
	.st3{fill:#E4D4D4;}
</style>
<g>
	<g>
		<polygon id="SVGID_1_" class="st0" points="768,0 768,326.8 0,511 0,0 		"/>
	</g>
</g>
<title>control_3</title>
<path class="st1" d="M455,109.2c0.3,0,0.5-0.1,0.8-0.2l-0.1,0.1C455.5,109.2,455.2,109.2,455,109.2z"/>
<g>
	<g>
		<defs>
			<polygon id="SVGID_2_" points="768,0 768,326.8 0,511 0,0 			"/>
		</defs>
		<clipPath id="SVGID_3_">
			<use xlink:href="#SVGID_2_"  style="overflow:visible;"/>
		</clipPath>
		<g class="st2">
			<path class="st3" d="M306.6,419.4c-7.5,30.8-3.9,47-3.4,48.7c1,3.9,3.4,7,6.7,8.7l-112.2-2c4.2-1.3,7.5-4.6,8.9-9
				c8-24.6-4.2-41.7-15-56.7c-10.5-14.6-21.3-29.7-21.5-56.2c-0.1-29.5,19.3-51,40.1-73.6c10-11,20.6-22.6,28.5-35.1
				c5.2-8.2,8.6-17.6,10.9-26.4c4,8.3,7.2,19.6,6.6,34.5c-0.4,12.8-5,28.9-9.2,43.3c-7.6,26.8-14.8,52.2,6.4,60
				c20.3,7.6,45-16,65.2-42.8c5.2,10.6,10.2,25.1,8.9,39.7c-1.4,17.9-5.6,27.2-10.5,38C313.5,398.3,309.5,407.1,306.6,419.4z"/>
			<path class="st1" d="M435,294c-1.3,59.3-36.7,118.6-108.5,181.4c-2.6,2.3-6,3.6-9.5,3.6c-1.4,0-2.9-0.3-4.3-0.7
				c-1-0.3-2-0.7-2.9-1.4c-3.3-1.7-5.7-4.9-6.7-8.7c-0.4-1.7-4-17.9,3.4-48.7c2.9-12.3,6.9-21.1,10.5-28.9c4.9-10.7,9-20.1,10.5-38
				c1.3-14.6-3.7-29.1-8.9-39.7c-20.2,26.8-44.8,50.4-65.2,42.8c-21.2-7.9-14-33.2-6.4-60c4.2-14.3,8.7-30.5,9.2-43.3
				c0.6-14.9-2.6-26.2-6.6-34.5c-2.3,8.7-5.7,18.2-10.9,26.4c-7.9,12.5-18.5,24.1-28.5,35.1c-20.8,22.6-40.3,44.1-40.1,73.6
				c0.1,26.5,11,41.6,21.5,56.2c10.9,15,23.1,32.1,15,56.7c-1.4,4.4-4.7,7.7-8.9,9c-2.9,1-6,1.1-9.2,0.1
				c-7.5-2.4-11.6-10.5-9.2-18.1c3.3-9.9-0.3-16-11-31.2c-11.3-15.6-26.7-37-26.9-72.5c-0.3-40.8,25.1-68.6,47.6-93.3
				c9.7-10.6,18.9-20.8,25.5-31.1c10.6-16.6,10.6-43,10.6-43.3c0-5.2,2.6-9.9,7-12.5c4.3-2.6,9.7-2.7,14.2-0.3
				c1.7,1,40.7,22.9,38.5,80.5c-0.6,16.2-5.7,34.2-10.2,50.1c-1.9,6.2-4.2,14.2-5.4,20.6c10.2-8.2,25.9-26.4,38.4-45.3
				c2.6-3.9,6.9-6.2,11.5-6.3c4.6-0.3,8.9,1.7,11.7,5.3c1.1,1.6,28.7,36.7,25.4,76.9c-2,22.9-7.6,35.4-13,47.4
				c-3.3,7.3-6.4,14.2-8.7,23.8c-0.3,1.3-0.6,2.4-0.7,3.7c47.9-48,71.6-92.7,72.6-136.3c1.4-71.9-59.9-130.5-119.4-187.1
				c-50.7-48.4-98.9-94.1-98.9-145c0-8,6.4-14.3,14.3-14.3c8,0,14.3,6.3,14.3,14.3c0,38.5,43.7,80.2,90,124.4
				C367.7,143.7,436.7,209.5,435,294z"/>
			<path class="st1" d="M152.4,479c-3.3,0-6.6-1.1-9.3-3.4C0.8,355,57.9,278.4,113.1,204.4c31.5-42.3,64.1-86,60.3-140.1
				c-0.6-7.9,5.4-14.7,13.3-15.3c7.8-0.7,14.7,5.4,15.3,13.3c4.6,64.7-32.9,114.9-65.9,159.3c-53.7,72.1-96.2,129,25.5,232.2
				c6,5.1,6.8,14.2,1.7,20.2C160.4,477.3,156.4,479,152.4,479z"/>
		</g>
	</g>
</g>
</svg>
