<?xml version="1.0" encoding="utf-8"?>
<!-- Generator: Adobe Illustrator 22.1.0, SVG Export Plug-In . SVG Version: 6.00 Build 0)  -->
<svg version="1.1" id="Layer_1" xmlns="http://www.w3.org/2000/svg" xmlns:xlink="http://www.w3.org/1999/xlink" x="0px" y="0px"
	 viewBox="0 0 376 451" style="enable-background:new 0 0 376 451;" xml:space="preserve">
<style type="text/css">
	.st0{fill:#E0EFFA;}
	.st1{fill:#D1E6F6;}
	.st2{clip-path:url(#SVGID_2_);}
	.st3{fill:#E4D4D4;}
</style>
<polygon class="st0" points="374.6,0 374.6,349.3 -0.4,451 -0.4,0 "/>
<title>control_3</title>
<path class="st1" d="M218.5,69.6c0.3,0,0.5-0.1,0.7-0.2l-0.1,0.1C218.9,69.6,218.7,69.6,218.5,69.6z"/>
<g>
	<defs>
		<polygon id="SVGID_1_" points="374.6,0 374.6,349.3 -0.4,451 -0.4,0 		"/>
	</defs>
	<clipPath id="SVGID_2_">
		<use xlink:href="#SVGID_1_"  style="overflow:visible;"/>
	</clipPath>
	<g class="st2">
		<path class="st1" d="M185.2,62.7c0.2,0,0.4-0.1,0.7-0.2l0,0C185.6,62.6,185.4,62.7,185.2,62.7z"/>
		<g>
			<path class="st3" d="M146.2,194.8c-3.2,13.1-1.7,20-1.5,20.8c0.4,1.7,1.5,3,2.9,3.7l-47.9-0.9c1.8-0.5,3.2-2,3.8-3.9
				c3.4-10.5-1.8-17.8-6.4-24.2c-4.5-6.2-9.1-12.7-9.2-24c-0.1-12.6,8.3-21.8,17.1-31.4c4.3-4.7,8.8-9.7,12.2-15
				c2.2-3.5,3.7-7.5,4.6-11.2c1.7,3.5,3.1,8.4,2.8,14.7c-0.2,5.4-2.1,12.3-3.9,18.5c-3.2,11.4-6.3,22.2,2.8,25.6
				c8.7,3.2,19.2-6.8,27.8-18.3c2.2,4.5,4.3,10.7,3.8,16.9c-0.6,7.6-2.4,11.6-4.5,16.2C149.1,185.8,147.4,189.6,146.2,194.8z"/>
			<path class="st1" d="M200.9,141.3c-0.5,25.3-15.6,50.6-46.3,77.4c-1.1,1-2.6,1.5-4,1.5c-0.6,0-1.2-0.1-1.8-0.3
				c-0.4-0.1-0.9-0.3-1.2-0.6c-1.4-0.7-2.4-2.1-2.9-3.7c-0.2-0.7-1.7-7.6,1.5-20.8c1.2-5.3,2.9-9,4.5-12.3c2.1-4.6,3.9-8.6,4.5-16.2
				c0.6-6.2-1.6-12.4-3.8-16.9c-8.6,11.4-19.1,21.5-27.8,18.3c-9-3.4-6-14.2-2.8-25.6c1.8-6.1,3.7-13,3.9-18.5
				c0.2-6.4-1.1-11.2-2.8-14.7c-1,3.7-2.4,7.8-4.6,11.2c-3.4,5.3-7.9,10.3-12.2,15c-8.9,9.7-17.2,18.8-17.1,31.4
				c0.1,11.3,4.7,17.7,9.2,24c4.6,6.4,9.8,13.7,6.4,24.2c-0.6,1.9-2,3.3-3.8,3.9c-1.2,0.4-2.6,0.5-3.9,0.1c-3.2-1-5-4.5-3.9-7.7
				c1.4-4.2-0.1-6.8-4.7-13.3c-4.8-6.7-11.4-15.8-11.5-30.9c-0.1-17.4,10.7-29.3,20.3-39.8c4.2-4.5,8.1-8.9,10.9-13.3
				c4.5-7.1,4.5-18.3,4.5-18.5c0-2.2,1.1-4.2,3-5.3c1.8-1.1,4.2-1.2,6.1-0.1c0.7,0.4,17.4,9.8,16.4,34.3c-0.2,6.9-2.4,14.6-4.3,21.4
				c-0.8,2.6-1.8,6.1-2.3,8.8c4.3-3.5,11.1-11.2,16.4-19.3c1.1-1.6,2.9-2.6,4.9-2.7c2-0.1,3.8,0.7,5,2.3
				c0.5,0.7,12.2,15.6,10.8,32.8c-0.9,9.8-3.2,15.1-5.6,20.2c-1.4,3.1-2.7,6.1-3.7,10.1c-0.1,0.6-0.2,1-0.3,1.6
				c20.4-20.5,30.6-39.5,31-58.1c0.6-30.7-25.5-55.7-50.9-79.8C116.2,40.6,95.6,21.1,95.6-0.6c0-3.4,2.8-6.1,6.1-6.1
				c3.4,0,6.1,2.7,6.1,6.1c0,16.4,18.6,34.2,38.4,53.1C172.2,77.2,201.7,105.3,200.9,141.3z"/>
			<path class="st1" d="M80.4,220.2c-1.4,0-2.8-0.5-4-1.5c-60.7-51.4-36.3-84.1-12.8-115.7c13.5-18,27.4-36.7,25.7-59.8
				c-0.2-3.4,2.3-6.3,5.7-6.5c3.3-0.3,6.3,2.3,6.5,5.7c2,27.6-14,49-28.1,67.9c-22.9,30.7-41,55,10.9,99.1c2.6,2.2,2.9,6,0.7,8.6
				C83.8,219.5,82.1,220.2,80.4,220.2z"/>
		</g>
	</g>
</g>
</svg>
