<?xml version="1.0" encoding="utf-8"?>
<!-- Generator: Adobe Illustrator 22.1.0, SVG Export Plug-In . SVG Version: 6.00 Build 0)  -->
<svg version="1.1" id="Layer_1" xmlns="http://www.w3.org/2000/svg" xmlns:xlink="http://www.w3.org/1999/xlink" x="0px" y="0px"
	 viewBox="0 0 1442 511" style="enable-background:new 0 0 1442 511;" xml:space="preserve">
<style type="text/css">
	.st0{fill:#E0EFFA;}
	.st1{clip-path:url(#SVGID_2_);}
	.st2{fill:#D1E6F6;}
	.st3{fill:#E4D4D4;}
</style>
<polygon class="st0" points="1442,0 1442,210 0,511 0,0 "/>
<title>control_3</title>
<g>
	<g>
		<defs>
			<polygon id="SVGID_1_" points="1442,0 1442,210 0,511 0,0 			"/>
		</defs>
		<clipPath id="SVGID_2_">
			<use xlink:href="#SVGID_1_"  style="overflow:visible;"/>
		</clipPath>
		<g class="st1">
			<path class="st2" d="M452.4,125.4c0.5,0,0.9-0.3,1.6-0.4l-0.1,0.1C453.4,125.2,453,125.4,452.4,125.4z"/>
			<g>
				<path class="st3" d="M367.9,411.9c-6.9,28.5-3.6,43.5-3.2,45.1c0.9,3.6,3.2,6.5,6.2,8.1l-103.8-1.9c3.8-1.2,6.9-4.2,8.2-8.3
					c7.4-22.8-3.8-38.6-13.9-52.5c-9.7-13.5-19.7-27.4-19.9-51.9c-0.1-27.3,17.9-47.2,37.1-68.1c9.3-10.2,19.1-20.9,26.4-32.5
					c4.8-7.6,8-16.3,10.1-24.4c3.7,7.7,6.6,18.2,6.1,31.9c-0.4,11.8-4.6,26.8-8.5,40c-7,24.8-13.6,48.2,6,55.5
					c18.8,7,41.6-14.8,60.3-39.6c4.8,9.8,9.4,23.2,8.2,36.7c-1.3,16.6-5.2,25.2-9.7,35.1C374.3,392.4,370.5,400.5,367.9,411.9z"/>
				<path class="st2" d="M486.6,295.9c-1.2,54.9-33.9,109.7-100.3,167.8c-2.4,2.1-5.6,3.3-8.7,3.3c-1.3,0-2.6-0.3-4-0.7
					c-0.9-0.3-1.9-0.7-2.7-1.3c-3-1.6-5.3-4.5-6.2-8.1c-0.4-1.6-3.7-16.6,3.2-45.1c2.6-11.4,6.4-19.5,9.7-26.8
					c4.5-9.9,8.3-18.6,9.7-35.1c1.2-13.5-3.4-26.9-8.2-36.7c-18.7,24.8-41.5,46.6-60.3,39.6c-19.6-7.3-13-30.7-6-55.5
					c3.8-13.3,8.1-28.2,8.5-40c0.5-13.8-2.4-24.2-6.1-31.9c-2.1,8.1-5.3,16.8-10.1,24.4c-7.3,11.5-17.1,22.3-26.4,32.5
					c-19.2,20.9-37.2,40.8-37.1,68.1c0.1,24.5,10.2,38.4,19.9,51.9c10.1,13.9,21.3,29.7,13.9,52.5c-1.3,4.1-4.4,7.2-8.2,8.3
					c-2.7,0.9-5.6,1.1-8.5,0.1c-6.9-2.3-10.7-9.7-8.5-16.7c3-9.1-0.3-14.8-10.2-28.9c-10.5-14.4-24.6-34.2-24.9-67
					c-0.3-37.8,23.2-63.5,44-86.3c9-9.8,17.5-19.2,23.6-28.8c9.8-15.4,9.8-39.8,9.8-40c0-4.8,2.4-9.1,6.5-11.5c4-2.4,9-2.5,13.1-0.3
					c1.6,0.9,37.6,21.2,35.6,74.5c-0.5,15-5.3,31.7-9.4,46.4c-1.7,5.7-3.8,13.1-5,19.1c9.4-7.6,24-24.4,35.5-41.9
					c2.4-3.6,6.4-5.7,10.6-5.8c4.2-0.3,8.2,1.6,10.9,4.9c1.1,1.5,26.5,33.9,23.5,71.2c-1.9,21.2-7,32.7-12.1,43.9
					c-3,6.8-6,13.1-8.1,22c-0.3,1.2-0.5,2.3-0.7,3.4c44.3-44.4,66.3-85.7,67.2-126c1.3-66.5-55.4-120.7-110.4-173.1
					c-46.9-44.8-91.4-87.1-91.4-134.1c0-7.4,6-13.3,13.3-13.3c7.4,0,13.3,5.8,13.3,13.3c0,35.6,40.4,74.2,83.2,115
					C424.3,156.9,488.2,217.8,486.6,295.9z"/>
				<path class="st2" d="M225.2,467c-3,0-6.1-1-8.6-3.1C85.1,352.3,137.9,281.5,188.9,213c29.2-39.1,59.3-79.6,55.8-129.6
					c-0.5-7.3,5-13.6,12.3-14.1c7.2-0.7,13.6,5,14.1,12.3c4.2,59.8-30.4,106.3-61,147.3c-49.7,66.7-88.9,119.3,23.6,214.8
					c5.6,4.7,6.3,13.1,1.5,18.7C232.7,465.4,229,467,225.2,467z"/>
			</g>
		</g>
	</g>
</g>
</svg>
