<?xml version="1.0" encoding="utf-8"?>
<!-- Generator: Adobe Illustrator 22.1.0, SVG Export Plug-In . SVG Version: 6.00 Build 0)  -->
<svg version="1.1" id="Layer_1" xmlns="http://www.w3.org/2000/svg" xmlns:xlink="http://www.w3.org/1999/xlink" x="0px" y="0px"
	 viewBox="0 0 768 511" style="enable-background:new 0 0 768 511;" xml:space="preserve">
<style type="text/css">
	.st0{fill:#9AC7FA;}
	.st1{clip-path:url(#SVGID_3_);}
	.st2{fill:#B4A9BE;}
	.st3{fill:#AFD2FB;}
</style>
<g>
	<g>
		<polygon id="SVGID_2_" class="st0" points="768,0 768,262.8 0,411 0,0 		"/>
	</g>
</g>
<title>control_3</title>
<g>
	<g>
		<g>
			<defs>
				<polygon id="SVGID_1_" points="767,-1 768,262.8 0,411 -1,-1 				"/>
			</defs>
			<clipPath id="SVGID_3_">
				<use xlink:href="#SVGID_1_"  style="overflow:visible;"/>
			</clipPath>
			<g class="st1">
				<path class="st2" d="M314.5,402.5h-78.6c0.3-0.2,0.7-0.5,1-0.8c1.8-1.9,2.8-4.4,2.8-6.9l-0.3-134.7h71.3v134.7
					C310.7,397.9,312.2,400.7,314.5,402.5z"/>
				<path class="st3" d="M515.3,244.4c-3.4,4.1-9.6,4.7-13.7,1.3l-72.2-60.1v209.2c0,5.4-4.3,9.8-9.8,9.8h-99.2
					c-2.2,0-4.3-0.8-5.9-2c-2.3-1.8-3.8-4.6-3.8-7.7V260.1h-71.3l0.3,134.7c0,2.5-1.1,5.1-2.8,6.9c-0.3,0.3-0.7,0.6-1,0.8
					c-1.8,1.3-3.8,2-5.9,2h-99.1c-5.4,0-9.8-4.4-9.8-9.8V211.2c0-5.4,4.4-9.8,9.8-9.8c5.4,0,9.8,4.4,9.8,9.8V385h79.6L220,250.3
					c0-2.6,1-5.1,2.8-6.9s4.3-2.8,6.9-2.8h90.8c5.5,0,9.8,4.4,9.8,9.8V385H410V169.4L278.4,60L51.1,245.7c-1.8,1.6-4,2.2-6.1,2.2
					c-2.8,0-5.7-1.3-7.5-3.6c-3.4-4.2-2.8-10.3,1.4-13.7L272.3,39.8c3.6-2.9,8.8-2.9,12.4,0.1L409.9,144V70.4c0-5.4,4.4-9.8,9.8-9.8
					c5.5,0,9.8,4.4,9.8,9.8v89.8l84.7,70.4C518.2,234.1,518.8,240.2,515.3,244.4z"/>
			</g>
		</g>
	</g>
</g>
</svg>
