<?xml version="1.0" encoding="utf-8"?>
<!-- Generator: Adobe Illustrator 22.1.0, SVG Export Plug-In . SVG Version: 6.00 Build 0)  -->
<svg version="1.1" id="Layer_1" xmlns="http://www.w3.org/2000/svg" xmlns:xlink="http://www.w3.org/1999/xlink" x="0px" y="0px"
	 viewBox="0 0 375 273" style="enable-background:new 0 0 375 273;" xml:space="preserve">
<style type="text/css">
	.st0{fill:#9AC7FA;}
	.st1{clip-path:url(#SVGID_2_);}
	.st2{fill:#AFD2FB;}
	.st3{fill:#B4A9BE;}
</style>
<polygon class="st0" points="375,0 375,161.4 0,273 0,0 "/>
<title>control_3</title>
<g>
	<defs>
		<polygon id="SVGID_1_" points="375,0 375,161.4 0,273 0,0 		"/>
	</defs>
	<clipPath id="SVGID_2_">
		<use xlink:href="#SVGID_1_"  style="overflow:visible;"/>
	</clipPath>
	<g class="st1">
		<path class="st2" d="M204.8,55c0.3,0,0.5-0.2,0.9-0.2l-0.1,0.1C205.4,54.9,205.2,55,204.8,55z"/>
		<g>
			<path class="st3" d="M159.8,207.8c-3.7,15.2-1.9,23.2-1.7,24.1c0.5,1.9,1.7,3.5,3.3,4.3l-55.4-1c2-0.6,3.7-2.2,4.4-4.4
				c3.9-12.2-2-20.6-7.4-28c-5.2-7.2-10.5-14.6-10.6-27.7c-0.1-14.6,9.5-25.2,19.8-36.3c5-5.4,10.2-11.1,14.1-17.3
				c2.6-4.1,4.3-8.7,5.4-13c2,4.1,3.5,9.7,3.3,17c-0.2,6.3-2.5,14.3-4.5,21.3c-3.7,13.2-7.3,25.7,3.2,29.6
				c10,3.7,22.2-7.9,32.2-21.1c2.6,5.2,5,12.4,4.4,19.6c-0.7,8.9-2.8,13.4-5.2,18.7C163.2,197.4,161.2,201.7,159.8,207.8z"/>
			<path class="st2" d="M223.1,145.9c-0.6,29.3-18.1,58.5-53.5,89.5c-1.3,1.1-3,1.8-4.6,1.8c-0.7,0-1.4-0.2-2.1-0.4
				c-0.5-0.2-1-0.4-1.4-0.7c-1.6-0.9-2.8-2.4-3.3-4.3c-0.2-0.9-2-8.9,1.7-24.1c1.4-6.1,3.4-10.4,5.2-14.3c2.4-5.3,4.4-9.9,5.2-18.7
				c0.6-7.2-1.8-14.3-4.4-19.6c-10,13.2-22.1,24.9-32.2,21.1c-10.5-3.9-6.9-16.4-3.2-29.6c2-7.1,4.3-15,4.5-21.3
				c0.3-7.4-1.3-12.9-3.3-17c-1.1,4.3-2.8,9-5.4,13c-3.9,6.1-9.1,11.9-14.1,17.3c-10.2,11.1-19.8,21.8-19.8,36.3
				c0.1,13.1,5.4,20.5,10.6,27.7c5.4,7.4,11.4,15.8,7.4,28c-0.7,2.2-2.3,3.8-4.4,4.4c-1.4,0.5-3,0.6-4.5,0.1
				c-3.7-1.2-5.7-5.2-4.5-8.9c1.6-4.9-0.2-7.9-5.4-15.4c-5.6-7.7-13.1-18.2-13.3-35.7c-0.2-20.2,12.4-33.9,23.5-46
				c4.8-5.2,9.3-10.2,12.6-15.4c5.2-8.2,5.2-21.2,5.2-21.3c0-2.6,1.3-4.9,3.5-6.1c2.1-1.3,4.8-1.3,7-0.2c0.9,0.5,20.1,11.3,19,39.7
				c-0.3,8-2.8,16.9-5,24.8c-0.9,3-2,7-2.7,10.2c5-4.1,12.8-13,18.9-22.4c1.3-1.9,3.4-3,5.7-3.1c2.2-0.2,4.4,0.9,5.8,2.6
				c0.6,0.8,14.1,18.1,12.5,38c-1,11.3-3.7,17.4-6.5,23.4c-1.6,3.6-3.2,7-4.3,11.7c-0.2,0.6-0.3,1.2-0.4,1.8
				c23.6-23.7,35.4-45.7,35.8-67.2c0.7-35.5-29.6-64.4-58.9-92.3c-25-23.9-48.8-46.5-48.8-71.5c0-3.9,3.2-7.1,7.1-7.1
				c3.9,0,7.1,3.1,7.1,7.1c0,19,21.6,39.6,44.4,61.3C189.9,71.8,223.9,104.3,223.1,145.9z"/>
			<path class="st2" d="M83.6,237.2c-1.6,0-3.3-0.5-4.6-1.7c-70.1-59.5-42-97.3-14.8-133.8C79.9,80.9,95.9,59.2,94,32.6
				c-0.3-3.9,2.7-7.3,6.6-7.5c3.8-0.4,7.3,2.7,7.5,6.6c2.2,31.9-16.2,56.7-32.5,78.6c-26.5,35.6-47.4,63.6,12.6,114.6
				c3,2.5,3.4,7,0.8,10C87.6,236.3,85.7,237.2,83.6,237.2z"/>
		</g>
	</g>
</g>
</svg>
