<?xml version="1.0" encoding="utf-8"?>
<!-- Generator: Adobe Illustrator 22.1.0, SVG Export Plug-In . SVG Version: 6.00 Build 0)  -->
<svg version="1.1" id="Layer_1" xmlns="http://www.w3.org/2000/svg" xmlns:xlink="http://www.w3.org/1999/xlink" x="0px" y="0px"
	 viewBox="0 0 768 511" style="enable-background:new 0 0 768 511;" xml:space="preserve">
<style type="text/css">
	.st0{fill:#9AC7FA;}
	.st1{clip-path:url(#SVGID_3_);}
	.st2{fill:#AFD2FB;}
	.st3{fill:#B4A9BE;}
</style>
<g>
	<g>
		<polygon id="SVGID_1_" class="st0" points="768,0 768,262.8 0,411 0,0 		"/>
	</g>
</g>
<title>control_3</title>
<g>
	<g>
		<g>
			<defs>
				<polygon id="SVGID_2_" points="768,0 768,262.8 0,411 0,0 				"/>
			</defs>
			<clipPath id="SVGID_3_">
				<use xlink:href="#SVGID_2_"  style="overflow:visible;"/>
			</clipPath>
			<g id="Layer_2_1_" class="st1">
				<g>
					<path class="st2" d="M375.4,68.3c0.5,0,0.9-0.3,1.5-0.4l-0.1,0.1C376.3,68.1,376,68.3,375.4,68.3z"/>
					<g>
						<path class="st3" d="M294.9,341.3c-6.6,27.2-3.4,41.4-3,43c0.9,3.4,3,6.2,5.9,7.7l-98.9-1.8c3.6-1.1,6.6-4,7.8-7.9
							c7.1-21.7-3.6-36.8-13.2-50c-9.2-12.9-18.8-26.1-19-49.5c-0.1-26,17.1-45,35.4-64.9c8.9-9.7,18.2-19.9,25.2-31
							c4.6-7.2,7.6-15.5,9.6-23.2c3.5,7.3,6.3,17.3,5.8,30.4c-0.4,11.2-4.4,25.5-8.1,38.1c-6.7,23.6-13,45.9,5.7,52.9
							c17.9,6.7,39.6-14.1,57.5-37.7c4.6,9.3,9,22.1,7.8,35c-1.2,15.8-5,24-9.2,33.4C301,322.7,297.3,330.4,294.9,341.3z"/>
						<path class="st2" d="M408,230.8c-1.1,52.3-32.3,104.5-95.6,159.9c-2.3,2-5.3,3.1-8.3,3.1c-1.2,0-2.5-0.3-3.8-0.7
							c-0.9-0.3-1.8-0.7-2.6-1.2c-2.9-1.5-5-4.3-5.9-7.7c-0.4-1.5-3.5-15.8,3-43c2.5-10.9,6.1-18.6,9.2-25.5
							c4.3-9.4,7.9-17.7,9.2-33.4c1.1-12.9-3.2-25.6-7.8-35c-17.8,23.6-39.5,44.4-57.5,37.7c-18.7-7-12.4-29.3-5.7-52.9
							c3.6-12.7,7.7-26.9,8.1-38.1c0.5-13.1-2.3-23.1-5.8-30.4c-2,7.7-5.1,16-9.6,23.2c-7,11-16.3,21.2-25.2,31
							c-18.3,19.9-35.4,38.9-35.4,64.9c0.1,23.3,9.7,36.6,19,49.5c9.6,13.2,20.3,28.3,13.2,50c-1.2,3.9-4.2,6.9-7.8,7.9
							c-2.6,0.9-5.3,1-8.1,0.1c-6.6-2.2-10.2-9.2-8.1-15.9c2.9-8.7-0.3-14.1-9.7-27.5c-10-13.7-23.4-32.6-23.7-63.8
							c-0.3-36,22.1-60.5,41.9-82.2c8.6-9.3,16.7-18.3,22.5-27.4c9.3-14.7,9.3-37.9,9.3-38.1c0-4.6,2.3-8.7,6.2-11
							c3.8-2.3,8.6-2.4,12.5-0.3c1.5,0.9,35.8,20.2,33.9,71c-0.5,14.3-5.1,30.2-9,44.2c-1.6,5.4-3.6,12.5-4.8,18.2
							c9-7.2,22.9-23.2,33.8-39.9c2.3-3.4,6.1-5.4,10.1-5.5c4-0.3,7.8,1.5,10.4,4.7c1,1.4,25.3,32.3,22.4,67.8
							c-1.8,20.2-6.7,31.2-11.5,41.8c-2.9,6.5-5.7,12.5-7.7,21c-0.3,1.1-0.5,2.2-0.7,3.2c42.2-42.3,63.2-81.7,64-120.1
							c1.2-63.4-52.8-115-105.2-164.9c-44.7-42.7-87.1-83-87.1-127.8c0-7.1,5.7-12.7,12.7-12.7c7.1,0,12.7,5.5,12.7,12.7
							c0,33.9,38.5,70.7,79.3,109.6C348.6,98.3,409.5,156.3,408,230.8z"/>
						<path class="st2" d="M158.9,393.8c-2.9,0-5.8-1-8.2-3C25.4,284.5,75.7,217,124.3,151.8c27.8-37.3,56.5-75.8,53.2-123.5
							c-0.5-7,4.8-13,11.7-13.4c6.9-0.7,13,4.8,13.4,11.7c4,57-29,101.3-58.1,140.4C97.2,230.5,59.8,280.6,167,371.6
							c5.3,4.5,6,12.5,1.4,17.8C166,392.3,162.5,393.8,158.9,393.8z"/>
					</g>
				</g>
			</g>
		</g>
	</g>
</g>
</svg>
