<svg xmlns="http://www.w3.org/2000/svg" viewBox="0 0 42.36 33.23"><defs><style>.cls-1{fill:#1d2d5d;}.cls-2{fill:#f26632;}</style></defs><title>control_2</title><g id="Layer_2" data-name="Layer 2"><g id="Layer_2-2" data-name="Layer 2"><path class="cls-1" d="M25.06,9.13a4.57,4.57,0,1,1,4.57-4.56A4.56,4.56,0,0,1,25.06,9.13Zm0-7.13a2.57,2.57,0,1,0,2.57,2.57A2.57,2.57,0,0,0,25.06,2Z"/><path class="cls-2" d="M16.23,16.92a2.57,2.57,0,1,1-2.55-2.56A2.57,2.57,0,0,1,16.23,16.92Z"/><path class="cls-1" d="M13.68,12.36a4.57,4.57,0,1,0,4.55,4.56A4.57,4.57,0,0,0,13.68,12.36Zm0,7.13a2.57,2.57,0,1,1,2.55-2.57A2.57,2.57,0,0,1,13.68,19.49Z"/><path class="cls-1" d="M28.82,33.23a4.57,4.57,0,1,1,4.56-4.56A4.57,4.57,0,0,1,28.82,33.23Zm0-7.13a2.57,2.57,0,1,0,2.56,2.57A2.57,2.57,0,0,0,28.82,26.1Z"/><path class="cls-1" d="M18.83,5.72H1a1,1,0,1,1,0-2H18.83a1,1,0,1,1,0,2Z"/><path class="cls-1" d="M41.36,5.72H31a1,1,0,0,1,0-2H41.36a1,1,0,1,1,0,2Z"/><path class="cls-1" d="M7.1,17.69H1a1,1,0,0,1,0-2H7.1a1,1,0,1,1,0,2Z"/><path class="cls-1" d="M41.36,17.69H20.24a1,1,0,0,1,0-2H41.36a1,1,0,0,1,0,2Z"/><path class="cls-1" d="M41.36,29.67h-6.1a1,1,0,0,1,0-2h6.1a1,1,0,0,1,0,2Z"/><path class="cls-1" d="M21.5,29.67H1a1,1,0,0,1,0-2H21.5a1,1,0,0,1,0,2Z"/></g></g></svg>