<svg xmlns="http://www.w3.org/2000/svg" viewBox="0 0 35.85 36.35"><defs><style>.cls-1{fill:#1d2d5d;}.cls-2{fill:#f26632;}</style></defs><title>heat-recovery_1</title><g id="Layer_2" data-name="Layer 2"><g id="Layer_2-2" data-name="Layer 2"><path class="cls-1" d="M31.26,6.42v0a.78.78,0,0,1,0,.22.57.57,0,0,1,0,.14,1,1,0,0,1-.37.47,1.4,1.4,0,0,1-.17.09.37.37,0,0,1-.14,0,.69.69,0,0,1-.25,0h-5a1,1,0,0,1,0-2h2.45A15.86,15.86,0,0,0,4.56,26.51,1,1,0,0,1,2.89,27.6,17.85,17.85,0,0,1,29.18,4.06l-.09-2.59a1,1,0,1,1,2-.06Z"/><path class="cls-1" d="M30.51,7.41a.37.37,0,0,0,.14,0h0A.28.28,0,0,1,30.51,7.41Z"/><path class="cls-1" d="M35.85,18.5A17.86,17.86,0,0,1,6.67,32.3l.09,2.58a1,1,0,1,1-2,.07l-.17-5v0a1.23,1.23,0,0,1,0-.2.48.48,0,0,1,.06-.18.79.79,0,0,1,.18-.29l.08-.08.1-.08A.7.7,0,0,1,5.2,29a1,1,0,0,1,.39-.08h5a1,1,0,0,1,0,2H8.14A15.86,15.86,0,0,0,31.29,9.85,1,1,0,1,1,33,8.76,17.77,17.77,0,0,1,35.85,18.5Z"/><path class="cls-1" d="M5.58,28.91A1,1,0,0,0,5.2,29h0A1,1,0,0,1,5.58,28.91Z"/><path class="cls-1" d="M5.69,28.91h0Z"/><path class="cls-1" d="M24.49,15.52a1,1,0,0,0-.85-.48h-4l-.2-8.34a1,1,0,0,0-1.9-.41L11.16,19.51a1,1,0,0,0,.9,1.44l3.84,0v8.38a1,1,0,0,0,.77,1,.85.85,0,0,0,.23,0,1,1,0,0,0,.89-.55l6.74-13.32A1,1,0,0,0,24.49,15.52ZM17.9,25.17V20a1,1,0,0,0-1-1l-3.26,0,3.86-8,.12,5.15a1,1,0,0,0,1,1H22Z"/><path class="cls-2" d="M17.9,25.17V20a1,1,0,0,0-1-1l-3.26,0,3.86-8,.12,5.15a1,1,0,0,0,1,1H22Z"/></g></g></svg>