<svg xmlns="http://www.w3.org/2000/svg" viewBox="0 0 49.31 54.5"><defs><style>.cls-1{fill:#1d2d5d;}.cls-1,.cls-2{fill-rule:evenodd;}.cls-2{fill:#f06731;}</style></defs><title>heat_pump_3</title><g id="Layer_2" data-name="Layer 2"><g id="Layer_2-2" data-name="Layer 2"><path class="cls-1" d="M22,13.21a1,1,0,0,1-1-1A3.28,3.28,0,0,1,22.62,9.8c.86-.7,1.68-1.35,1.68-2.56,0-1-.52-1.56-1.36-2.42A5.23,5.23,0,0,1,21,1a1,1,0,0,1,2,0c0,1,.52,1.56,1.36,2.42A5.2,5.2,0,0,1,26.3,7.24a5.18,5.18,0,0,1-2.42,4.11c-.28.23-.88.71-.88.86a1,1,0,0,1-1,1Z"/><path class="cls-1" d="M15.5,13.21a1,1,0,0,1-1-1A3.28,3.28,0,0,1,16.12,9.8C17,9.1,17.8,8.45,17.8,7.24c0-1-.52-1.56-1.36-2.42A5.23,5.23,0,0,1,14.5,1a1,1,0,0,1,2,0c0,1,.52,1.56,1.36,2.42A5.2,5.2,0,0,1,19.8,7.24a5.18,5.18,0,0,1-2.42,4.11c-.28.23-.88.71-.88.86a1,1,0,0,1-1,1Z"/><path class="cls-1" d="M9,13.21a1,1,0,0,1-1-1A3.28,3.28,0,0,1,9.62,9.8c.86-.7,1.68-1.35,1.68-2.56,0-1-.52-1.56-1.36-2.42A5.23,5.23,0,0,1,8,1a1,1,0,0,1,2,0c0,1,.52,1.56,1.36,2.42A5.2,5.2,0,0,1,13.3,7.24a5.18,5.18,0,0,1-2.42,4.11c-.28.23-.88.71-.88.86a1,1,0,0,1-1,1Z"/><path class="cls-1" d="M48.31,48h-24V44.5a1,1,0,0,0-.53-.88,1,1,0,0,0-1,.05l-7,4.71a1,1,0,0,0-.44.86,1,1,0,0,0,.48.83l7,4.29a1.07,1.07,0,0,0,.52.14,1,1,0,0,0,.49-.13,1,1,0,0,0,.51-.87V50h24a1,1,0,0,0,0-2Zm-26,3.72-4.15-2.55,4.15-2.79Z"/><polygon class="cls-2" points="22.3 46.38 22.3 51.72 18.15 49.17 22.3 46.38"/><path class="cls-1" d="M37.88,33.35a1,1,0,0,0-.82-.58l-3.74-.32A16.66,16.66,0,1,0,12.09,48.68a1.26,1.26,0,0,0,.27,0,1,1,0,0,0,1-.73,1,1,0,0,0-.69-1.24A14.66,14.66,0,1,1,31.31,32.28L28.09,32a1,1,0,0,0-1,1.48l4.1,7.37a1,1,0,0,0,.81.52h.07a1,1,0,0,0,.8-.41l4.87-6.61A1,1,0,0,0,37.88,33.35Zm-5.65,5.5-2.77-5,6.06.52Z"/><polygon class="cls-1" points="35.52 34.39 32.23 38.85 29.46 33.87 35.52 34.39"/><polygon class="cls-2" points="35.52 34.39 32.23 38.85 29.46 33.87 35.52 34.39"/></g></g></svg>