<svg xmlns="http://www.w3.org/2000/svg" viewBox="0 0 44.73 33.64"><defs><style>.cls-1{fill:#f26632;}.cls-2{fill:#1d2d5d;}</style></defs><title>solar_2</title><g id="Layer_2" data-name="Layer 2"><g id="Layer_2-2" data-name="Layer 2"><path class="cls-1" d="M22.29,11.83a10.74,10.74,0,0,0-4.18,6.44,9,9,0,0,0-3.95,2.18A6.56,6.56,0,0,0,12.5,22.9a7.39,7.39,0,0,1-1.68-4.73,7.48,7.48,0,0,1,11.47-6.34Z"/><path class="cls-2" d="M17.74,6.54a1,1,0,0,1-1-1V1a1,1,0,0,1,2,0V5.54A1,1,0,0,1,17.74,6.54Z"/><path class="cls-2" d="M25.26,8.6a1,1,0,0,1-.67-.26,1,1,0,0,1-.06-1.41l2.92-3.2a1,1,0,0,1,1.48,1.35L26,8.28A1,1,0,0,1,25.26,8.6Z"/><path class="cls-2" d="M9.09,9.74a1,1,0,0,1-.71-.3L5.21,6.24a1,1,0,0,1,0-1.41,1,1,0,0,1,1.42,0L9.8,8a1,1,0,0,1,0,1.42A1,1,0,0,1,9.09,9.74Z"/><path class="cls-2" d="M5.92,17.32H1a1,1,0,0,1,0-2H5.92a1,1,0,1,1,0,2Z"/><path class="cls-2" d="M41.9,20.57A8,8,0,0,0,38,19.62H37.8a5.32,5.32,0,0,0-3.59,1,4.87,4.87,0,0,0-2,4.1,1,1,0,0,0,2-.15,2.88,2.88,0,0,1,1.21-2.33,3.47,3.47,0,0,1,2.41-.61H38a6.06,6.06,0,0,1,2.95.68,4,4,0,0,1,1.83,3.78,5.45,5.45,0,0,1-1.44,4,6.4,6.4,0,0,1-4.11,1.53H11.31A2.53,2.53,0,0,1,9.5,28.81a2.17,2.17,0,0,1,.65-1.62,4.56,4.56,0,0,1,2.95-.89,1,1,0,0,0,.79-.34,1,1,0,0,0,.24-.83,4,4,0,0,1,1.41-3.23,6.91,6.91,0,0,1,3.53-1.79,1,1,0,0,0,.9-.88c0-.23.56-4.57,4.49-6.3l.12-.06a8.94,8.94,0,0,1,3.54-.66C35,12.21,36,17.15,36,17.39a1,1,0,0,0,2-.33c0-.07-1.21-6.85-9.88-6.85a11.4,11.4,0,0,0-3.81.61A9.49,9.49,0,0,0,8.82,18.17a9.37,9.37,0,0,0,2.42,6.33,5.42,5.42,0,0,0-2.45,1.23,4.1,4.1,0,0,0-1.29,3,4.52,4.52,0,0,0,3.55,4.86H37.23a8.25,8.25,0,0,0,5.44-2.09,7.34,7.34,0,0,0,2.06-5.47C44.73,22.88,43.19,21.32,41.9,20.57Zm-31.08-2.4a7.48,7.48,0,0,1,11.47-6.34,10.74,10.74,0,0,0-4.18,6.44,9,9,0,0,0-3.95,2.18A6.56,6.56,0,0,0,12.5,22.9,7.39,7.39,0,0,1,10.82,18.17Z"/></g></g></svg>