<svg xmlns="http://www.w3.org/2000/svg" viewBox="0 0 26.61 37.13"><defs><style>.cls-1{fill:#f26532;}.cls-2{fill:#1d2d5d;}</style></defs><title>ultra-heat_2</title><g id="Layer_2" data-name="Layer 2"><g id="Layer_2-2" data-name="Layer 2"><path class="cls-1" d="M17.65,33a7.69,7.69,0,0,0-.24,3.4.92.92,0,0,0,.47.61l-7.83-.14a1,1,0,0,0,.62-.63c.56-1.72-.3-2.91-1.05-4a6.19,6.19,0,0,1-1.5-3.92c0-2.06,1.35-3.56,2.8-5.14a19.37,19.37,0,0,0,2-2.45,6.64,6.64,0,0,0,.76-1.84,5,5,0,0,1,.46,2.41,13.74,13.74,0,0,1-.64,3c-.53,1.87-1,3.64.45,4.19s3.13-1.12,4.55-3a5.45,5.45,0,0,1,.62,2.77A6.9,6.9,0,0,1,18.38,31,10,10,0,0,0,17.65,33Z"/><path class="cls-2" d="M26.61,24.22c-.09,4.14-2.56,8.28-7.57,12.66a1,1,0,0,1-.66.25,1,1,0,0,1-.3-.05.54.54,0,0,1-.2-.1.92.92,0,0,1-.47-.61,7.69,7.69,0,0,1,.24-3.4,10,10,0,0,1,.73-2,6.9,6.9,0,0,0,.73-2.65,5.45,5.45,0,0,0-.62-2.77c-1.42,1.87-3.13,3.52-4.55,3s-1-2.32-.45-4.19a13.74,13.74,0,0,0,.64-3,5,5,0,0,0-.46-2.41,6.64,6.64,0,0,1-.76,1.84,19.37,19.37,0,0,1-2,2.45c-1.45,1.58-2.81,3.08-2.8,5.14a6.19,6.19,0,0,0,1.5,3.92c.75,1,1.61,2.24,1.05,4a1,1,0,0,1-.62.63,1,1,0,0,1-1.28-1.25c.23-.69,0-1.12-.78-2.18a8.18,8.18,0,0,1-1.87-5.06c0-2.85,1.75-4.79,3.32-6.51a16.68,16.68,0,0,0,1.78-2.17,6.61,6.61,0,0,0,.74-3,1,1,0,0,1,1.48-.89,6,6,0,0,1,2.69,5.62,15.35,15.35,0,0,1-.72,3.5c-.12.43-.28,1-.37,1.44a15.92,15.92,0,0,0,2.68-3.16,1,1,0,0,1,.79-.44,1,1,0,0,1,.83.37,8.61,8.61,0,0,1,1.77,5.37,9,9,0,0,1-.91,3.31,8.62,8.62,0,0,0-.61,1.66,2.38,2.38,0,0,0-.05.26c3.34-3.35,5-6.47,5.07-9.51.1-5-4.18-9.11-8.33-13.06C12.73,7.74,9.38,4.55,9.38,1a1,1,0,0,1,2,0c0,2.69,3,5.6,6.28,8.67C21.91,13.73,26.73,18.32,26.61,24.22Z"/><path class="cls-2" d="M6.88,37.13a1,1,0,0,1-.64-.24C-3.69,28.47.29,23.13,4.14,18c2.21-3,4.48-6,4.21-9.78a1,1,0,0,1,2-.14c.32,4.52-2.3,8-4.6,11.12-3.75,5-6.71,9,1.78,16.21a1,1,0,0,1-.65,1.76Z"/></g></g></svg>