<?xml version="1.0" encoding="utf-8"?>
<!-- Generator: Adobe Illustrator 22.1.0, SVG Export Plug-In . SVG Version: 6.00 Build 0)  -->
<svg version="1.1" id="Layer_1" xmlns="http://www.w3.org/2000/svg" xmlns:xlink="http://www.w3.org/1999/xlink" x="0px" y="0px"
	 viewBox="0 0 1442 391" style="enable-background:new 0 0 1442 391;" xml:space="preserve">
<style type="text/css">
	.st0{fill:#9AC7FA;}
	.st1{clip-path:url(#SVGID_2_);}
	.st2{fill:#AFD2FB;}
	.st3{fill:#B4A9BE;}
</style>
<polygon class="st0" points="1442,0 1442,90 0,391 0,0 "/>
<title>control_3</title>
<g>
	<g>
		<g>
			<defs>
				<polygon id="SVGID_1_" points="1442,0 1442,90 0,391 0,0 				"/>
			</defs>
			<clipPath id="SVGID_2_">
				<use xlink:href="#SVGID_1_"  style="overflow:visible;"/>
			</clipPath>
			<g id="Layer_2_1_" class="st1">
				<g>
					<path class="st2" d="M358.9,111.3c0.4,0,0.7-0.2,1.2-0.3L360,111C359.6,111.1,359.3,111.3,358.9,111.3z"/>
					<g>
						<path class="st2" d="M365.5,102.5v0.2c0,0.6-0.1,1.4-0.2,1.9c-0.1,0.4-0.2,0.9-0.3,1.2c-0.6,1.7-1.8,3-3.1,4.1
							c-0.5,0.2-0.9,0.6-1.5,0.7c-0.4,0.2-0.7,0.3-1.2,0.3c-0.6,0.2-1.5,0.3-2.2,0.3h-43.8c-4.8,0-8.7-4-8.7-8.7
							c0-4.8,4-8.7,8.7-8.7h21.5c-24.4-19.5-54.9-30.2-86.3-30.2c-76.6,0-138.8,62.4-138.8,138.9c0,26.9,7.8,53.2,22.4,75.7
							c2.7,4,1.5,9.4-2.5,12.1c-1.5,0.9-3,1.5-4.8,1.5c-2.8,0-5.7-1.5-7.3-4C100.7,262.5,92,233,92,202.6
							c-0.2-86.2,70-156.4,156.2-156.4c36.3,0,71.4,12.9,99.2,35.5L346.7,59c-0.2-4.8,3.6-8.8,8.5-9c4.8-0.4,8.8,3.6,9,8.5
							L365.5,102.5z"/>
						<path class="st2" d="M405.7,208.4c0,86.2-70.2,156.3-156.3,156.3c-36.3,0-71.4-12.7-99.2-35.4l0.7,22.6c0.2,4.8-3.6,9-8.4,9.1
							c-4.8,0.2-9-3.7-9.1-8.5l-1.5-43.8v-0.2c0-0.6,0.1-1.4,0.2-1.9c0.1-0.4,0.2-0.9,0.3-1.2c0.3-0.9,0.9-1.9,1.7-2.7
							c0.2-0.3,0.6-0.6,0.9-0.9c0.6-0.6,1.4-0.9,2.1-1.4c0.9-0.4,2.2-0.6,3.5-0.6h43.8c4.8,0,8.7,3.9,8.7,8.7c0,4.8-3.9,8.7-8.7,8.7
							h-21.5c24.4,19.4,54.9,30.1,86.3,30.1c76.6,0,138.8-62.4,138.8-138.8c0-26.9-7.8-53.3-22.4-75.7c-2.7-4-1.5-9.4,2.5-12.1
							c4-2.7,9.4-1.5,12.1,2.5C397,148.4,405.7,177.9,405.7,208.4z"/>
						<path class="st2" d="M140.6,299.5c-1.2,0-2.3,0.2-3.5,0.6l0.1-0.1C138.3,299.7,139.5,299.5,140.6,299.5z"/>
						<path class="st2" d="M141.6,299.5c-0.3,0-0.6,0-0.9,0l0,0H141.6z"/>
						<path class="st3" d="M248.5,266.8v-45.4c0-4.8-3.9-8.7-8.7-8.7l-28.6-0.2l33.8-70.6l0.9,45c0.2,4.8,4,8.7,8.7,8.7h29.7
							L248.5,266.8z"/>
						<path class="st2" d="M306.2,182.2c-1.6-2.7-4.4-4.2-7.3-4.2h-35.3l-1.8-73.1c-0.1-4-2.8-7.3-6.9-8.4c-4-0.9-8.1,1.2-9.9,4.8
							l-55.6,115.8c-1.4,2.7-1.2,5.9,0.4,8.4c1.6,2.7,4.4,4.1,7.3,4.2l33.7,0.2v73.4c0,4,2.7,7.6,6.7,8.5c0.6,0.2,1.4,0.2,2,0.2
							c3.1,0,6.3-1.9,7.8-4.8l58.9-116.7C308,188,307.7,184.8,306.2,182.2z M248.5,266.8v-45.4c0-4.8-3.9-8.7-8.7-8.7l-28.6-0.2
							l33.8-70.6l0.9,45c0.2,4.8,4,8.7,8.7,8.7h29.7L248.5,266.8z"/>
					</g>
				</g>
			</g>
		</g>
	</g>
</g>
</svg>
