<?xml version="1.0" encoding="utf-8"?>
<!-- Generator: Adobe Illustrator 22.1.0, SVG Export Plug-In . SVG Version: 6.00 Build 0)  -->
<svg version="1.1" id="Layer_1" xmlns="http://www.w3.org/2000/svg" xmlns:xlink="http://www.w3.org/1999/xlink" x="0px" y="0px"
	 viewBox="0 0 1442 511" style="enable-background:new 0 0 1442 511;" xml:space="preserve">
<style type="text/css">
	.st0{fill:#9AC7FA;}
	.st1{clip-path:url(#SVGID_2_);}
	.st2{fill:#B4A9BE;}
	.st3{fill:#AFD2FB;}
</style>
<polygon class="st0" points="1442,0 1442,90 0,391 0,0 "/>
<title>control_3</title>
<g>
	<g>
		<defs>
			<polygon id="SVGID_1_" points="1442,0 1442,90 0,391 0,0 			"/>
		</defs>
		<clipPath id="SVGID_2_">
			<use xlink:href="#SVGID_1_"  style="overflow:visible;"/>
		</clipPath>
		<g class="st1">
			<path class="st2" d="M344.6,380.2H273c0.2-0.2,0.6-0.4,0.9-0.8c1.6-1.7,2.6-4,2.6-6.4l-0.2-122.7h64.9V373
				C341,376,342.4,378.5,344.6,380.2z"/>
			<path class="st3" d="M527.4,236.2c-3.1,3.8-8.7,4.3-12.4,1.2l-65.7-54.7v190.5c0,4.8-3.9,8.8-8.8,8.8h-90.4c-2,0-3.9-0.8-5.4-1.8
				c-2.2-1.6-3.4-4.2-3.4-7V250.5h-64.9l0.2,122.7c0,2.3-1,4.6-2.6,6.4c-0.2,0.2-0.6,0.5-0.9,0.8c-1.6,1.2-3.4,1.8-5.4,1.8h-90.3
				c-4.8,0-8.8-4-8.8-8.8V205.9c0-4.8,4-8.8,8.8-8.8s8.8,4,8.8,8.8v158.3h72.5l-0.2-122.7c0-2.4,0.9-4.6,2.6-6.4
				c1.7-1.7,3.9-2.6,6.4-2.6h82.7c5,0,8.8,4,8.8,8.8V364h72.4V167.9L311.6,68.1l-207,169.1c-1.6,1.4-3.7,2-5.6,2
				c-2.6,0-5.2-1.2-6.8-3.3c-3.1-3.8-2.6-9.4,1.3-12.4L306.1,49.7c3.3-2.7,8-2.7,11.3,0.1l114,94.9V77.6c0-4.8,4-8.8,8.8-8.8
				c5,0,8.8,4,8.8,8.8v81.9l77.1,64.1C530.1,226.7,530.6,232.3,527.4,236.2z"/>
		</g>
	</g>
</g>
</svg>
