<?xml version="1.0" encoding="utf-8"?>
<!-- Generator: Adobe Illustrator 22.1.0, SVG Export Plug-In . SVG Version: 6.00 Build 0)  -->
<svg version="1.1" id="Layer_1" xmlns="http://www.w3.org/2000/svg" xmlns:xlink="http://www.w3.org/1999/xlink" x="0px" y="0px"
	 viewBox="0 0 177.1 60.2" style="enable-background:new 0 0 177.1 60.2;" xml:space="preserve">
<style type="text/css">
	.st0{fill:#FFFFFF;}
	.st1{enable-background:new    ;}
	.st2{fill:#1D2E5D;}
	.st3{fill:#F26532;}
</style>
<g id="Layer_2_1_">
</g>
<g id="Layer_1_1_">
	<title>Asset 30</title>
	<g id="Layer_2_2_">
		<g id="Layer_2-2">
			<path class="st0" d="M177.1,39.1c-0.1,11.7-9.7,21.1-21.4,21H25.2c-10.9,0.1-19.9-8.7-20-19.5c0-0.3,0-3.9-0.3-5.5
				c-0.2-0.9-0.8-1.5-1.5-2.2c-1.9-1.5-3.1-3.7-3.2-6.1c-0.5-3.8,2.1-7.2,4.5-10.5c2.2-3,4.3-5.8,3.8-8.3C8.3,7.5,8.7,6.8,9.4,6.7
				C10,6.6,10.6,7,10.7,7.6c0.7,3.6-1.8,7-4.2,10.2c-2.2,2.9-4.4,5.9-4.1,8.8c0.1,1.8,1,3.5,2.5,4.6c1,0.9,1.4,1.2,2,2.5
				C7.1,34,7.3,35,7.2,35.5v5c0.1,9.8,8.2,17.6,18,17.5h130.6c10.7,0.1,19.4-8.4,19.5-19c0-5.1-2.1-9.9-5.7-13.4
				c-3.7-3.6-8.6-5.6-13.8-5.5H26.5c0.7,2.7,0.9,4.8-0.6,7.9c-0.7,1.8-2.8,4.1-4.3,5.6c-0.8,0.7-1.5,1.4-2.1,2.2
				c-0.2,0.3-0.6,0.6-1,0.5h-0.2c-0.5,0-0.8-0.4-0.9-0.8c0-0.1-0.1-0.3-0.1-0.4c-0.1-1.8,0.1-3.6,0.7-5.3c0.1-0.2,0.2-0.4,0.3-0.6
				c0.7-1.2,0.8-2.8,0.2-4.1c-0.4,0.6-0.5,0.8-1,1.3c-0.7,0.8-1.8,1-2.8,0.5c-0.6-0.3-1.3-0.8-1.4-2.2c0-1-0.1-2.1,0.1-3.3
				c0.3-1.3,0-2.2,0-2.4c0,0,0,0,0-0.1c-0.3,0.7-0.7,1.3-1.1,1.8c-0.3,0.3-0.6,0.7-1,1.1c-1.1,0.9-2,2-2.5,3.3
				c-0.6,2.1,0.2,3.4,1,4.7c0.2,0.3,0.4,0.6,0.5,0.9c0.6,1.3,0.9,2.6,0.9,4c0,0.2,0,0.3-0.1,0.5c-0.2,0.4-0.6,0.7-1,0.7
				c-0.6,0-1.1-0.5-1.1-1.2c0-0.3,0-0.7-0.1-1c-0.1-0.6-0.2-1.2-0.5-1.8L8,31.1c-1.5-1.9-1.9-4.3-1.3-6.6c0.7-1.7,1.8-3.2,3.2-4.3
				c0.3-0.3,0.6-0.6,0.9-0.9c0.8-0.9,1.2-2.1,1.2-3.2c0-0.5,0.3-0.9,0.7-1.1s0.9-0.1,1.3,0.3c2.4,1.9,2.1,6,1.9,6.8
				c-0.2,0.9-0.4,1.7-0.3,2.6c0,0.5,0.5,0.3,0.7,0.2c0.6-0.5,1-1.4,1.4-2.3c0.1-0.4,0.4-0.8,0.9-0.9c0.4-0.1,0.9,0.1,1.1,0.4
				c2.9,3.9,1.8,6.3,1.1,8.1l-0.2,0.6c-0.2,0.5-0.1,0.1-0.2,0.6c0,0,3-3.3,3.6-4.5c2.8-5.3-2.7-12.5-8.2-17.6
				c-3.1-2.9-5.7-5.4-6-7.9c-0.1-0.6,0.4-1.2,1-1.3s1.2,0.4,1.3,1c0.2,1.7,2.7,4,5.3,6.5c2.8,2.8,5.8,6.3,8.3,10.5h129.8
				c5.7-0.1,11.2,2.1,15.2,6.1C174.8,28.1,177.2,33.4,177.1,39.1z"/>
			<g>
				<g class="st1">
					<path class="st2" d="M48,41.7c-0.7,1-2,1.6-3.6,1.6s-2.9-0.6-3.7-1.7c-0.5-0.8-0.8-1.9-0.8-3.4v-5.3h2.2v5.2
						c0,1.1,0.1,1.7,0.4,2.2c0.3,0.5,0.9,0.9,1.8,0.9c0.9,0,1.5-0.3,1.8-0.8c0.3-0.5,0.4-1.2,0.4-2.2V33h2.1v5.3
						C48.6,38.3,48.6,40.9,48,41.7z"/>
					<path class="st2" d="M50.5,32.5h2.1v10.7h-2.1V32.5z"/>
					<path class="st2" d="M58.9,43c-0.3,0.2-1,0.4-1.6,0.4c-0.7,0-1.4-0.2-1.8-0.7c-0.4-0.4-0.6-1-0.6-2.1v-2.5h-1.1v-1.8h1.1v-1.8
						l2.1-0.4v2.2h1.9v1.8h-1.8v2.3c0,0.7,0.2,1.2,0.8,1.2c0.4,0,0.7-0.1,1-0.3C58.9,41.3,58.9,43,58.9,43z"/>
				</g>
				<g class="st1">
					<path class="st2" d="M60.2,36.3h2.1v0.9l0,0c0.5-0.7,1.1-1,2-1c0.1,0,0.3,0,0.4,0.1v2c-0.2,0-0.4-0.1-0.6-0.1
						c-0.7,0-1.4,0.2-1.9,0.8v4.2h-2.1v-6.9H60.2z"/>
				</g>
				<g class="st1">
					<path class="st2" d="M69.4,42.8c-0.4,0.3-1.1,0.6-1.9,0.6c-0.6,0-1.1-0.1-1.6-0.4c-0.5-0.4-0.8-0.9-0.8-1.6
						c0-0.8,0.4-1.3,0.8-1.7c0.5-0.4,1.2-0.5,1.9-0.5c0.4,0,0.8,0,1.2,0.1V39c0-0.3-0.1-0.6-0.3-0.7c-0.2-0.2-0.6-0.3-1.1-0.3
						c-0.8,0-1.5,0.3-2,0.5v-1.8c0.6-0.3,1.4-0.5,2.4-0.5c0.9,0,1.8,0.2,2.3,0.7c0.5,0.4,0.8,1,0.8,1.9v2.3c0,0.3,0.1,0.5,0.4,0.5
						c0.1,0,0.2,0,0.4-0.1v1.6c-0.2,0.1-0.6,0.2-1,0.2C70.3,43.3,69.8,43.2,69.4,42.8L69.4,42.8z M69,40.5c-0.2-0.1-0.5-0.1-0.8-0.1
						c-0.5,0-1.1,0.2-1.1,0.7c0,0.4,0.4,0.7,0.9,0.7c0.4,0,0.7-0.1,1-0.3V40.5z"/>
					<path class="st2" d="M76.4,33.1h2.2V37H83v-3.9h2.2v10.1H83v-4.3h-4.4v4.3h-2.2V33.1z"/>
					<path class="st2" d="M88.8,40.3c0.2,1,1,1.4,2,1.4c0.8,0,1.6-0.3,2.3-0.8v1.8c-0.7,0.4-1.7,0.6-2.6,0.6c-2.3,0-3.9-1.4-3.9-3.6
						s1.7-3.6,3.6-3.6c1.7,0,3.3,1.1,3.3,3.4c0,0.2,0,0.5,0,0.7L88.8,40.3L88.8,40.3z M91.5,39c-0.1-0.7-0.7-1.2-1.4-1.2
						c-0.7,0-1.2,0.4-1.4,1.2H91.5z"/>
					<path class="st2" d="M98.8,42.8c-0.4,0.3-1.1,0.6-1.9,0.6c-0.6,0-1.1-0.1-1.6-0.4c-0.5-0.4-0.8-0.9-0.8-1.6
						c0-0.8,0.4-1.3,0.8-1.7c0.5-0.4,1.2-0.5,1.9-0.5c0.4,0,0.8,0,1.2,0.1V39c0-0.3-0.1-0.6-0.3-0.7C97.9,38.1,97.5,38,97,38
						c-0.8,0-1.5,0.3-2,0.5v-1.8c0.6-0.3,1.4-0.5,2.4-0.5c0.9,0,1.8,0.2,2.3,0.7c0.5,0.4,0.8,1,0.8,1.9v2.3c0,0.3,0.1,0.5,0.4,0.5
						c0.1,0,0.2,0,0.3-0.1v1.6c-0.2,0.1-0.6,0.2-1,0.2C99.7,43.3,99.2,43.2,98.8,42.8L98.8,42.8z M98.4,40.5
						c-0.2-0.1-0.5-0.1-0.8-0.1c-0.5,0-1.1,0.2-1.1,0.7c0,0.4,0.4,0.7,0.9,0.7c0.4,0,0.7-0.1,1-0.3V40.5z"/>
					<path class="st2" d="M106.9,43c-0.3,0.2-1,0.4-1.6,0.4c-0.7,0-1.4-0.2-1.8-0.7c-0.4-0.4-0.6-1-0.6-2.1v-2.5h-1.1v-1.8h1.1v-1.8
						l2.1-0.4v2.2h1.8v1.8H105v2.3c0,0.7,0.2,1.2,0.8,1.2c0.4,0,0.7-0.1,1-0.3L106.9,43L106.9,43z"/>
					<path class="st2" d="M120,42.5c-0.9,0.5-2.2,0.8-3.4,0.8c-3.2,0-5.5-2.2-5.5-5.2c0-3,2.3-5.3,5.5-5.3c1.2,0,2.3,0.3,3.1,0.8
						v2.3c-0.9-0.6-2-1-3.1-1c-2,0-3.4,1.4-3.4,3.2c0,1.8,1.3,3.2,3.3,3.2c0.5,0,0.9-0.1,1.2-0.2v-1.5h-1.8v-1.8h3.9v4.7
						C119.8,42.5,120,42.5,120,42.5z"/>
					<path class="st2" d="M125.4,38.8c-0.5-0.7-1-1.5-1.5-2.2l0,0c0,0.7,0,1.7,0,2.5v4.1h-2.1V33.1h2.1l3,4.3l3-4.3h2.1v10.1h-2.1
						v-4.1c0-0.8,0-1.8,0-2.5l0,0c-0.5,0.7-1,1.5-1.5,2.2l-1.5,2.1L125.4,38.8z"/>
					<path class="st2" d="M133,33.1h2.4l1.6,4.5c0.3,0.9,0.7,1.8,1,2.8l0,0c0.3-0.9,0.7-1.8,1-2.8l1.7-4.4h2.3l-3.9,10.1h-2.2
						L133,33.1z"/>
				</g>
			</g>
		</g>
	</g>
</g>
<path class="st3" d="M18.3,36.3L10.2,36c0.4,0,0.8-0.3,1-0.7c0.1-0.2,0.1-0.3,0.1-0.5c0-1.4-0.3-2.7-0.9-4c-0.1-0.3-0.3-0.6-0.5-0.9
	c-0.8-1.3-1.6-2.6-1-4.7c0.5-1.3,1.4-2.4,2.5-3.3c0.4-0.4,0.7-0.8,1-1.1c0.4-0.5,0.8-1.1,1.1-1.8c0,0,0,0,0,0.1c0,0.3,0.3,1.1,0,2.4
	c-0.2,1.2-0.2,2.3-0.1,3.3c0,1.4,0.8,1.9,1.4,2.2c1,0.4,2,0.2,2.8-0.5c0.5-0.6,0.6-0.8,1-1.3c0.6,1.3,0.5,2.9-0.2,4.1
	c-0.1,0.2-0.2,0.4-0.3,0.6c-0.6,1.7-0.8,3.5-0.7,5.3c0,0.1,0.1,0.3,0.1,0.4C17.5,35.9,17.9,36.3,18.3,36.3z"/>
</svg>
