<?xml version="1.0" encoding="utf-8"?>
<!-- Generator: Adobe Illustrator 22.1.0, SVG Export Plug-In . SVG Version: 6.00 Build 0)  -->
<svg version="1.1" id="Layer_1" xmlns="http://www.w3.org/2000/svg" xmlns:xlink="http://www.w3.org/1999/xlink" x="0px" y="0px"
	 viewBox="0 0 186.2 61.3" style="enable-background:new 0 0 186.2 61.3;" xml:space="preserve">
<style type="text/css">
	.st0{fill:none;}
	.st1{fill:#F26632;}
	.st2{fill:#FFFFFF;}
	.st3{fill:#1D2E5D;}
</style>
<g id="Layer_2_1_">
</g>
<g id="Layer_1_1_">
	<g>
		<path class="st0" d="M68.2,44.8c-3.2,0-5.5-2.2-5.5-5.2s2.3-5.3,5.5-5.3c1.2,0,2.3,0.3,3.1,0.8v2.2c-0.9-0.6-2-1-3.1-1
			c-2,0-3.4,1.4-3.4,3.2s1.3,3.2,3.3,3.2c0.5,0,0.9-0.1,1.2-0.2V41h-1.8v-1.7h3.9V44h0.2C70.7,44.5,69.4,44.8,68.2,44.8z M90.6,44.8
			h-2.2l-3.9-10.2h2.4l1.6,4.5c0.3,0.9,0.7,1.8,1,2.8c0.3-0.9,0.7-1.8,1-2.8l1.7-4.4h2.3L90.6,44.8z M97.8,44.8
			c-1.1,0-2.1-0.3-2.8-0.6l0.2-1.9c0.8,0.4,1.7,0.6,2.5,0.6c1.1,0,1.9-0.5,1.9-1.2c0-1.2-1.8-1.4-2.9-1.4c-0.4,0-0.8,0-1.2,0.1
			l0.4-5.8h5.5l-0.1,1.9H98l-0.2,2c1.9,0.1,4,0.9,4,3.1C101.8,43.5,100.1,44.8,97.8,44.8z M109.7,44.9c-1,0-2.3-0.3-3.2-0.7v-2.4
			c1.1,0.7,2.4,1.1,3.2,1.1s1.4-0.3,1.4-1.1c0-0.9-1-1-2.3-1.4c-1.4-0.5-2.7-1.1-2.7-2.9c0-1.9,1.4-3.1,3.6-3.1c1,0,2.2,0.3,3.1,0.7
			v2.2c-1.1-0.7-2.3-1-3.1-1s-1.3,0.3-1.3,1c0,0.9,0.9,1,2.2,1.4c1.5,0.5,2.8,1.2,2.8,3C113.4,43.8,111.9,44.9,109.7,44.9z
			 M118.1,44.8c-2.2,0-3.8-1.6-3.8-3.6s1.6-3.6,3.8-3.6s3.8,1.6,3.8,3.6S120.3,44.8,118.1,44.8z M125.4,44.8h-2.1V34h2.1V44.8z
			 M133.5,44.6c-0.2,0.1-0.6,0.2-1,0.2c-0.5,0-1.1-0.1-1.5-0.5c-0.4,0.3-1.1,0.6-1.9,0.6c-0.6,0-1.1-0.1-1.6-0.4
			c-0.5-0.4-0.8-0.9-0.8-1.6c0-0.8,0.4-1.3,0.8-1.7c0.5-0.4,1.2-0.5,1.9-0.5c0.4,0,0.8,0,1.2,0.1v-0.3c0-0.3-0.1-0.6-0.3-0.7
			c-0.2-0.2-0.6-0.3-1.1-0.3c-0.8,0-1.5,0.3-2,0.5v-1.8c0.6-0.3,1.4-0.5,2.4-0.5c0.9,0,1.8,0.2,2.3,0.7c0.5,0.4,0.8,1,0.8,1.9v2.3
			c0,0.3,0.1,0.5,0.4,0.5c0.1,0,0.2,0,0.4-0.1L133.5,44.6L133.5,44.6z M139.2,39.8c-0.2,0-0.4-0.1-0.6-0.1c-0.7,0-1.4,0.2-1.9,0.8
			v4.2h-2.1v-6.9h2.2v0.9c0.5-0.7,1.1-1,2-1c0.1,0,0.3,0,0.4,0.1L139.2,39.8L139.2,39.8z"/>
		<path class="st0" d="M118.1,43c1,0,1.7-0.8,1.7-1.8s-0.7-1.8-1.7-1.8s-1.7,0.8-1.7,1.8S117.1,43,118.1,43z"/>
		<path class="st0" d="M128.8,42.6c0,0.4,0.4,0.7,0.9,0.7c0.4,0,0.7-0.1,1-0.3v-1c-0.2-0.1-0.5-0.1-0.8-0.1
			C129.4,41.9,128.8,42.1,128.8,42.6z"/>
		<path class="st1" d="M13,19.3c1.2-1.2,2.5-1.9,4.1-2.3c0.6-2.8,2.2-5,4.3-6.7C20.1,9.4,18.7,9,17.3,9c-4.3,0-7.9,3.6-7.9,8
			c0,1.8,0.6,3.6,1.8,5C11.6,20.9,12.2,20.1,13,19.3z"/>
		<path class="st2" d="M18.3,5.1V0.9c0-0.6-0.4-0.9-1-0.9s-1,0.4-1,0.9v4.2c0,0.6,0.4,0.9,1,0.9S18.3,5.6,18.3,5.1z"/>
		<path class="st2" d="M24.1,7.9c0.3,0,0.5-0.1,0.7-0.3l3-3.2C28.1,4,28,3.5,27.7,3.2c-0.4-0.4-1-0.4-1.5,0l-3,3.1
			c-0.3,0.4-0.3,1,0.1,1.3C23.6,7.8,23.8,7.9,24.1,7.9z"/>
		<path class="st2" d="M8.9,9c0.3,0,0.5-0.1,0.7-0.3c0.4-0.4,0.4-1,0-1.4l-3.1-3c-0.4-0.4-1-0.4-1.3,0c-0.4,0.4-0.4,1,0,1.4l3.1,3
			C8.5,8.9,8.6,9,8.9,9z"/>
		<path class="st2" d="M0.2,15.6c0,0.6,0.3,1,0.9,1h4.3c0.5,0,0.9-0.4,0.9-1s-0.3-1-0.9-1H1C0.5,14.7,0.2,15.1,0.2,15.6z"/>
		<path class="st2" d="M179.9,25.1c-4-4-9.5-6.3-15.2-6.2H40.2c-1.1-0.5-2.2-0.7-3.3-0.7h-0.2c-1.3-0.1-2.6,0.2-3.6,1
			c-1.3,1-2.1,2.5-2,4.1c0,0.6,0.5,1,1.1,0.9c0.6,0,1-0.5,0.9-1.1c0-0.9,0.5-1.8,1.2-2.3c0.7-0.5,1.6-0.7,2.4-0.6h0.1
			c1,0,2.1,0.3,3,0.8c1.3,0.8,2,2.3,1.8,3.8c0.1,1.5-0.4,2.9-1.4,4c-1.1,1-2.6,1.5-4.1,1.5h-26c-0.3-0.1-1.9-0.6-1.8-2.8
			C8.3,27,8.5,26.4,9,26c0.9-0.6,1.9-0.9,3-0.9c0.3,0,0.6-0.1,0.8-0.3c0.2-0.2,0.3-0.5,0.2-0.8c-0.1-1.2,0.5-2.4,1.4-3.2
			c1-0.9,2.2-1.6,3.5-1.8c0.5,0,0.8-0.4,0.9-0.9c0-0.2,0.6-4.6,4.5-6.4l0.1-0.1c1.1-0.5,2.3-0.7,3.5-0.7c6.9,0,7.9,4.9,7.9,5.2
			c0.1,0.6,0.6,0.9,1.2,0.8c0.6-0.1,0.9-0.6,0.8-1.2c0-0.1-1.2-6.9-9.9-6.9c-1.3,0-2.6,0.2-3.8,0.6c-4.1-3.3-10-2.7-13.4,1.4
			c-1.4,1.7-2.1,3.8-2.1,6.1s0.9,4.6,2.4,6.4c-0.9,0.2-1.8,0.6-2.5,1.2c-0.8,0.8-1.3,1.9-1.3,3c-0.2,2.4,1.3,4.5,3.5,5h3.9v-0.2
			c0,0.1,0,0.1,0,0.2c0,1.3,0.1,3.7,0.2,6.6c0.1,1.3,0.1,2.3,0.1,2.5C14,52.6,23,61.4,34,61.3h130.6c11.8,0.1,21.5-9.5,21.6-21.3
			C186.2,34.4,183.9,29.1,179.9,25.1z M9.6,16.9c0-4.1,3.4-7.6,7.5-7.6c1.4,0,2.8,0.4,4,1.1c0,0,0,0-0.1,0.1h0.1
			c-2.1,1.6-3.6,3.8-4.2,6.5c-1.5,0.4-2.8,1.1-3.9,2.2c-0.7,0.7-1.3,1.5-1.7,2.5C10.2,20.3,9.6,18.6,9.6,16.9z M164.6,59.2H34
			c-9.8,0.1-17.9-7.9-18-17.8c0-0.3-0.1-1.3-0.1-2.6c0-0.5,0-1.1-0.1-1.8c0-0.4,0-0.8,0-1.3c0-1.6-0.1-3-0.1-3.3H36
			c2,0,3.9-0.8,5.4-2.1c1.4-1.5,2.2-3.4,2.1-5.5c0.1-1.7-0.3-2.9-0.9-3.8h122c5.2-0.1,10.1,1.9,13.8,5.5c3.6,3.5,5.7,8.4,5.7,13.5
			C184.1,50.9,175.4,59.3,164.6,59.2z"/>
		<path class="st2" d="M14.7,33L14.7,33v-0.2C14.7,32.9,14.7,32.9,14.7,33z"/>
		<path class="st3" d="M68.2,44.8c1.2,0,2.5-0.3,3.4-0.8h-0.2v-4.7h-3.9V41h1.8v1.5c-0.3,0.1-0.7,0.2-1.2,0.2c-2,0-3.3-1.4-3.3-3.2
			s1.4-3.2,3.4-3.2c1.1,0,2.2,0.4,3.1,1v-2.2c-0.8-0.5-1.9-0.8-3.1-0.8c-3.2,0-5.5,2.3-5.5,5.3S65,44.8,68.2,44.8z"/>
		<path class="st3" d="M74.9,40.9c0-0.8,0-1.8,0-2.5c0.5,0.7,1,1.5,1.5,2.2l1.5,2l1.4-2.1c0.5-0.7,1-1.5,1.5-2.2c0,0.7,0,1.7,0,2.5
			v4.1H83V34.8h-2.1l-3,4.3l-3-4.3h-2.1V45h2.1V40.9z"/>
		<path class="st3" d="M90.6,44.8l3.9-10.1h-2.3l-1.7,4.4c-0.3,1-0.7,1.9-1,2.8c-0.3-1-0.7-1.9-1-2.8l-1.6-4.5h-2.4l3.9,10.2H90.6z"
			/>
		<path class="st3" d="M101.8,41.5c0-2.2-2.1-3-4-3.1l0.2-2h3.3l0.1-1.9h-5.5l-0.4,5.8c0.4-0.1,0.8-0.1,1.2-0.1
			c1.1,0,2.9,0.2,2.9,1.4c0,0.7-0.8,1.2-1.9,1.2c-0.8,0-1.7-0.2-2.5-0.6l-0.2,2c0.7,0.3,1.7,0.6,2.8,0.6
			C100.1,44.8,101.8,43.5,101.8,41.5z"/>
		<path class="st3" d="M108.8,40.4c1.3,0.4,2.3,0.5,2.3,1.4c0,0.8-0.6,1.1-1.4,1.1s-2.1-0.4-3.2-1.1v2.4c0.9,0.4,2.2,0.7,3.2,0.7
			c2.2,0,3.7-1.2,3.7-3.2c0-1.8-1.3-2.5-2.8-3c-1.3-0.4-2.2-0.5-2.2-1.4c0-0.7,0.5-1,1.3-1s2,0.3,3.1,1v-2.2
			c-0.9-0.4-2.1-0.7-3.1-0.7c-2.2,0-3.6,1.2-3.6,3.1C106.1,39.3,107.4,39.9,108.8,40.4z"/>
		<path class="st3" d="M118.1,44.8c2.2,0,3.8-1.6,3.8-3.6s-1.6-3.6-3.8-3.6s-3.8,1.6-3.8,3.6S115.9,44.8,118.1,44.8z M118.1,39.4
			c1,0,1.7,0.8,1.7,1.8s-0.7,1.8-1.7,1.8s-1.7-0.8-1.7-1.8S117.1,39.4,118.1,39.4z"/>
		<rect x="123.3" y="34" class="st3" width="2.1" height="10.7"/>
		<path class="st3" d="M129.4,40.8c-0.7,0-1.4,0.1-1.9,0.5c-0.4,0.4-0.8,0.9-0.8,1.7c0,0.7,0.3,1.2,0.8,1.6c0.5,0.3,1,0.4,1.6,0.4
			c0.8,0,1.5-0.3,1.9-0.6c0.4,0.4,1,0.5,1.5,0.5c0.4,0,0.8-0.1,1-0.2v-1.6c-0.2,0.1-0.3,0.1-0.4,0.1c-0.3,0-0.4-0.2-0.4-0.5v-2.3
			c0-0.9-0.3-1.5-0.8-1.9c-0.5-0.5-1.4-0.7-2.3-0.7c-1,0-1.8,0.2-2.4,0.5V40c0.5-0.2,1.2-0.5,2-0.5c0.5,0,0.9,0.1,1.1,0.3
			c0.2,0.1,0.3,0.4,0.3,0.7v0.3C130.2,40.8,129.8,40.8,129.4,40.8z M130.7,42v1c-0.3,0.2-0.6,0.3-1,0.3c-0.5,0-0.9-0.3-0.9-0.7
			c0-0.5,0.6-0.7,1.1-0.7C130.2,41.9,130.5,41.9,130.7,42z"/>
		<path class="st3" d="M136.7,40.5c0.5-0.6,1.2-0.8,1.9-0.8c0.2,0,0.4,0.1,0.6,0.1v-2c-0.1-0.1-0.3-0.1-0.4-0.1c-0.9,0-1.5,0.3-2,1
			v-0.9h-2.1h-0.1v6.9h2.1V40.5z"/>
	</g>
</g>
</svg>
