<?xml version="1.0" encoding="utf-8"?>
<!-- Generator: Adobe Illustrator 22.1.0, SVG Export Plug-In . SVG Version: 6.00 Build 0)  -->
<svg version="1.1" id="Layer_1" xmlns="http://www.w3.org/2000/svg" xmlns:xlink="http://www.w3.org/1999/xlink" x="0px" y="0px"
	 viewBox="0 0 18 18" style="enable-background:new 0 0 18 18;" xml:space="preserve">
<style type="text/css">
	.st0{fill:#F26532;}
</style>
<g id="Mobile">
	<g id="Gree_Resources_indoor-units" transform="translate(-309.000000, -457.000000)">
		<g id="Dropdown" transform="translate(27.000000, 384.000000)">
			<g id="High-Static-Pressure" transform="translate(1.000000, 70.000000)">
				<g id="Group" transform="translate(5.000000, 0.000000)">
					<path id="Plus" class="st0" d="M286.6,10.4V3.9c0-0.9-0.7-0.9-1.6-0.9s-1.6,0.1-1.6,0.9v6.5h-6.5c-0.9,0-0.9,0.7-0.9,1.6
						s0.1,1.6,0.9,1.6h6.5v6.5c0,0.9,0.7,0.9,1.6,0.9s1.6-0.1,1.6-0.9v-6.5h6.5c0.9,0,0.9-0.7,0.9-1.6s-0.1-1.6-0.9-1.6H286.6z"/>
				</g>
			</g>
		</g>
	</g>
</g>
</svg>
