<?xml version="1.0" encoding="utf-8"?>
<!-- Generator: Adobe Illustrator 22.1.0, SVG Export Plug-In . SVG Version: 6.00 Build 0)  -->
<svg version="1.1" id="Layer_1" xmlns="http://www.w3.org/2000/svg" xmlns:xlink="http://www.w3.org/1999/xlink" x="0px" y="0px"
	 viewBox="0 0 24 24" style="enable-background:new 0 0 24 24;" xml:space="preserve">
<style type="text/css">
	.st0{fill:#4A90E2;}
</style>
<g id="Mobile">
	<g id="Menu" transform="translate(-325.000000, -91.000000)">
		<g id="X" transform="translate(91.000000, 64.000000)">
			<g transform="translate(234.000000, 27.000000)">
				<path id="Path" class="st0" d="M4.3,1.5C3.5,0.7,2.2,0.6,1.4,1.4S0.7,3.5,1.5,4.3l18.2,18.2c0.8,0.8,2.1,0.9,2.9,0.1
					s0.7-2.1-0.1-2.9L4.3,1.5z"/>
				<path id="Path_1_" class="st0" d="M4.3,22.5L22.5,4.3c0.8-0.8,0.9-2.1,0.1-2.9s-2.1-0.7-2.9,0.1L1.5,19.7
					c-0.8,0.8-0.9,2.1-0.1,2.9S3.5,23.4,4.3,22.5L4.3,22.5z"/>
			</g>
		</g>
	</g>
</g>
</svg>
