<?xml version="1.0" encoding="utf-8"?>
<!-- Generator: Adobe Illustrator 22.1.0, SVG Export Plug-In . SVG Version: 6.00 Build 0)  -->
<svg version="1.1" id="Layer_1" xmlns="http://www.w3.org/2000/svg" xmlns:xlink="http://www.w3.org/1999/xlink" x="0px" y="0px"
	 viewBox="0 0 31 31" style="enable-background:new 0 0 31 31;" xml:space="preserve">
<style type="text/css">
	.st0{fill:none;stroke:#FFFFFF;stroke-width:2;}
</style>
<g id="Symbols">
	<g id="Footer" transform="translate(-102.000000, -172.000000)">
		<g id="ICONS">
			<g transform="translate(103.000000, 168.000000)">
				<path id="S-Facebook" class="st0" d="M25.4,5H3.6C1.6,5,0,6.6,0,8.6v21.8c0,2,1.6,3.6,3.6,3.6h11V23.6h-3.5v-4.5h3.5v-2.3
					c0-3.5,2.6-6.2,5.9-6.2h3.2v5.1h-2.9c-0.7,0-1,0.4-1,1v2.4h3.8v4.5h-3.8V34h5.5c2,0,3.6-1.6,3.6-3.6V8.6C29,6.6,27.4,5,25.4,5
					L25.4,5z"/>
			</g>
		</g>
	</g>
</g>
</svg>
