<?xml version="1.0" encoding="utf-8"?>
<!-- Generator: Adobe Illustrator 22.1.0, SVG Export Plug-In . SVG Version: 6.00 Build 0)  -->
<svg version="1.1" id="Layer_1" xmlns="http://www.w3.org/2000/svg" xmlns:xlink="http://www.w3.org/1999/xlink" x="0px" y="0px"
	 viewBox="0 0 35 26" style="enable-background:new 0 0 35 26;" xml:space="preserve">
<style type="text/css">
	.st0{fill:#FFFFFF;}
</style>
<g id="Symbols">
	<g id="Footer" transform="translate(-246.000000, -176.000000)">
		<g id="ICONS">
			<g transform="translate(103.000000, 168.000000)">
				<g id="Mail" transform="translate(143.000000, 8.000000)">
					<path id="Fill-1" class="st0" d="M2.2,23.5h30.6V2.1H2.2V23.5z M33.8,25.6H1.1c-0.6,0-1.1-0.5-1.1-1.1V1.1C0,0.5,0.5,0,1.1,0
						h32.7c0.6,0,1.1,0.5,1.1,1.1v23.5C34.9,25.2,34.4,25.6,33.8,25.6z"/>
					<path id="Fill-3" class="st0" d="M17.2,15.1c-0.2,0-0.4-0.1-0.6-0.2l-12-7.8c-0.5-0.3-0.6-1-0.3-1.5s1-0.6,1.5-0.3l11.3,7.4
						l16-12.5c0.5-0.4,1.1-0.3,1.5,0.2c0.4,0.5,0.3,1.1-0.2,1.5l-16.6,13C17.6,15,17.4,15.1,17.2,15.1"/>
				</g>
			</g>
		</g>
	</g>
</g>
</svg>
