<?xml version="1.0" encoding="utf-8"?>
<!-- Generator: Adobe Illustrator 22.1.0, SVG Export Plug-In . SVG Version: 6.00 Build 0)  -->
<svg version="1.1" id="Layer_1" xmlns="http://www.w3.org/2000/svg" xmlns:xlink="http://www.w3.org/1999/xlink" x="0px" y="0px"
	 viewBox="0 0 34 34" style="enable-background:new 0 0 34 34;" xml:space="preserve">
<style type="text/css">
	.st0{filter:url(#Adobe_OpacityMaskFilter);}
	.st1{fill:#FFFFFF;}
	.st2{mask:url(#mask-2_1_);fill:#FFFFFF;}
</style>
<g id="Symbols">
	<g id="Footer" transform="translate(-173.000000, -168.000000)">
		<g id="ICONS">
			<g transform="translate(103.000000, 168.000000)">
				<g id="Phone" transform="translate(70.000000, 0.000000)">
					<g id="Clip-2">
					</g>
					<defs>
						<filter id="Adobe_OpacityMaskFilter" filterUnits="userSpaceOnUse" x="0" y="0" width="33.6" height="33.6">
							<feColorMatrix  type="matrix" values="1 0 0 0 0  0 1 0 0 0  0 0 1 0 0  0 0 0 1 0"/>
						</filter>
					</defs>
					<mask maskUnits="userSpaceOnUse" x="0" y="0" width="33.6" height="33.6" id="mask-2_1_">
						<g class="st0">
							<polygon id="path-1_1_" class="st1" points="0,0 33.6,0 33.6,33.6 0,33.6 							"/>
						</g>
					</mask>
					<path id="Fill-1" class="st2" d="M25.9,33.6C16.4,33.3,0,16.5,0,7.3c0-1.9,1.9-4.5,3.8-6c1.3-1,2.6-1.5,3.6-1.2
						c2,0.5,4.2,3.3,5.4,5.8c0.6,1.4,1.2,3.4,0.5,4.9c-0.5,0.9-1.7,1-2.7,1.1c-0.3,0-0.7,0.1-0.9,0.1c-0.3,2.8,3.9,7.9,8,9.7
						c0.5,0.2,0.8,0.9,0.6,1.4c-0.2,0.5-0.9,0.8-1.4,0.6c-5.9-2.6-10-9.1-9.2-12.5c0.3-1.2,1.7-1.4,2.8-1.5c0.3,0,0.8-0.1,1-0.1
						c0.1-0.5,0.1-1.4-0.6-2.9C9.7,4.4,7.9,2.4,6.9,2.2C6.7,2.1,6.1,2.2,5.1,3c-1.7,1.3-3,3.4-3,4.3c0,3.7,3.4,9.7,8.8,15.1
						c5.3,5.4,11.2,9,15,9.1c1,0,3.4-1.3,4.7-3c0.7-0.9,0.8-1.4,0.8-1.6c-0.2-0.9-1.7-2.5-4.1-3.8c-1.9-1-3.5-1.3-4.2-1.1
						c-0.1,0.2-0.2,0.6-0.3,0.8c-0.3,0.9-0.6,2.1-1.8,2.2c-0.6,0.1-1.1-0.3-1.2-0.9c-0.1-0.5,0.2-0.9,0.6-1.1
						c0.1-0.2,0.2-0.6,0.3-0.8c0.3-0.8,0.6-1.8,1.4-2.2c2-0.8,5,0.5,6.1,1.2c2.1,1.1,4.8,3.2,5.2,5.3c0.2,1-0.2,2.2-1.3,3.4
						c-1.5,1.8-4.4,3.7-6.3,3.7C25.9,33.6,25.9,33.6,25.9,33.6z"/>
				</g>
			</g>
		</g>
	</g>
</g>
</svg>
