<?xml version="1.0" encoding="utf-8"?>
<!-- Generator: Adobe Illustrator 22.1.0, SVG Export Plug-In . SVG Version: 6.00 Build 0)  -->
<svg version="1.1" id="Layer_1" xmlns="http://www.w3.org/2000/svg" xmlns:xlink="http://www.w3.org/1999/xlink" x="0px" y="0px"
	 viewBox="0 0 768 511" style="enable-background:new 0 0 768 511;" xml:space="preserve">
<style type="text/css">
	.st0{fill:#9AC7FA;}
	.st1{clip-path:url(#SVGID_3_);}
	.st2{fill:#AFD2FB;}
	.st3{fill:#B4A9BE;}
</style>
<g>
	<g>
		<polygon id="SVGID_1_" class="st0" points="768,0 768,262.8 0,411 0,0 		"/>
	</g>
</g>
<title>control_3</title>
<g>
	<g>
		<g>
			<defs>
				<polygon id="SVGID_2_" points="768,0 768,262.8 0,411 0,0 				"/>
			</defs>
			<clipPath id="SVGID_3_">
				<use xlink:href="#SVGID_2_"  style="overflow:visible;"/>
			</clipPath>
			<g id="Layer_2_1_" class="st1">
				<g>
					<path class="st2" d="M367.3,116c0.4,0,0.8-0.3,1.4-0.3l-0.1,0.1C368.2,115.9,367.8,116,367.3,116z"/>
					<g>
						<path class="st2" d="M374.7,106.3v0.3c0,0.7-0.1,1.6-0.3,2.1c-0.1,0.4-0.3,1-0.3,1.4c-0.7,1.9-2,3.4-3.5,4.6
							c-0.6,0.3-1,0.7-1.7,0.8c-0.4,0.3-0.8,0.3-1.4,0.3c-0.7,0.3-1.7,0.3-2.4,0.3h-48.9c-5.4,0-9.8-4.4-9.8-9.8
							c0-5.3,4.4-9.8,9.8-9.8h24c-27.2-21.8-61.3-33.7-96.4-33.7c-85.5,0-155,69.7-155,155.2c0,30.1,8.7,59.4,25,84.6
							c3,4.4,1.7,10.5-2.8,13.5c-1.7,1-3.4,1.7-5.3,1.7c-3.1,0-6.4-1.7-8.1-4.4C79,285,69.3,252,69.3,218
							c-0.2-96.3,78.2-174.7,174.4-174.7c40.5,0,79.8,14.4,110.8,39.7l-0.8-25.3c-0.3-5.4,4-9.9,9.5-10c5.3-0.4,9.9,4,10,9.5
							L374.7,106.3z"/>
						<path class="st2" d="M419.6,224.5c0,96.3-78.4,174.5-174.5,174.5c-40.5,0-79.8-14.2-110.8-39.5l0.8,25.2
							c0.3,5.4-4,10-9.4,10.1c-5.3,0.3-10-4.1-10.1-9.5l-1.7-48.9v-0.3c0-0.7,0.1-1.6,0.3-2.1c0.1-0.4,0.3-1,0.3-1.4
							c0.3-1,1-2.1,1.9-3.1c0.3-0.3,0.7-0.7,1-1c0.7-0.7,1.6-1,2.4-1.6c1-0.4,2.4-0.7,3.9-0.7h48.9c5.4,0,9.8,4.4,9.8,9.8
							s-4.4,9.8-9.8,9.8h-24c27.2,21.6,61.3,33.6,96.4,33.6c85.5,0,155-69.7,155-155c0-30.1-8.7-59.5-25-84.6
							c-3-4.4-1.7-10.5,2.8-13.5c4.4-3,10.5-1.7,13.5,2.8C409.8,157.5,419.6,190.5,419.6,224.5z"/>
						<path class="st2" d="M123.6,326.3c-1.4,0-2.6,0.3-3.9,0.7l0.1-0.1C120.9,326.5,122.3,326.3,123.6,326.3z"/>
						<path class="st2" d="M124.6,326.3c-0.3,0-0.7,0-1,0l0,0H124.6z"/>
						<path class="st3" d="M244,289.8V239c0-5.3-4.4-9.7-9.7-9.8l-31.9-0.3l37.7-78.8l1,50.3c0.3,5.4,4.4,9.7,9.8,9.7h33.1
							L244,289.8z"/>
						<path class="st2" d="M308.4,195.3c-1.7-3-5-4.7-8.2-4.7h-39.4l-2-81.6c-0.1-4.4-3.1-8.2-7.7-9.3c-4.4-1-9.1,1.3-11.1,5.3
							L178,234.2c-1.6,3.1-1.3,6.6,0.4,9.4c1.7,3,5,4.6,8.1,4.7l37.7,0.3v81.9c0,4.4,3.1,8.5,7.5,9.5c0.7,0.3,1.6,0.3,2.3,0.3
							c3.5,0,7.1-2.1,8.7-5.4l65.8-130.3C310.5,201.7,310.2,198.2,308.4,195.3z M244,289.8V239c0-5.3-4.4-9.7-9.7-9.8l-31.9-0.3
							l37.7-78.8l1,50.3c0.3,5.4,4.4,9.7,9.8,9.7h33.1L244,289.8z"/>
					</g>
				</g>
			</g>
		</g>
	</g>
</g>
</svg>
