<?xml version="1.0" encoding="utf-8"?>
<!-- Generator: Adobe Illustrator 22.1.0, SVG Export Plug-In . SVG Version: 6.00 Build 0)  -->
<svg version="1.1" id="Layer_1" xmlns="http://www.w3.org/2000/svg" xmlns:xlink="http://www.w3.org/1999/xlink" x="0px" y="0px"
	 viewBox="0 0 375 273" style="enable-background:new 0 0 375 273;" xml:space="preserve">
<style type="text/css">
	.st0{fill:#9AC7FA;}
	.st1{fill:#AFD2FB;}
	.st2{fill:#B4A9BE;}
</style>
<polygon class="st0" points="375,0 375,161.4 0,273 0,0 "/>
<title>control_3</title>
<g>
	<path class="st1" d="M189.5,58.5c0.2,0,0.4-0.1,0.7-0.2l0,0C190,58.4,189.8,58.5,189.5,58.5z"/>
	<g>
		<path class="st1" d="M193.4,53.4v0.1c0,0.4,0,0.8-0.1,1.1c0,0.2-0.1,0.5-0.2,0.7c-0.4,1-1,1.8-1.8,2.4c-0.3,0.1-0.5,0.4-0.9,0.4
			c-0.2,0.1-0.4,0.2-0.7,0.2c-0.4,0.1-0.9,0.2-1.3,0.2h-25.6c-2.8,0-5.1-2.3-5.1-5.1c0-2.8,2.3-5.1,5.1-5.1h12.6
			c-14.2-11.4-32.1-17.7-50.5-17.7c-44.8,0-81.1,36.5-81.1,81.2c0,15.7,4.6,31.1,13.1,44.3c1.6,2.3,0.9,5.5-1.5,7.1
			c-0.9,0.5-1.8,0.9-2.8,0.9c-1.6,0-3.3-0.9-4.2-2.3c-9.7-14.8-14.8-32.1-14.8-49.9c-0.1-50.4,40.9-91.5,91.3-91.5
			c21.2,0,41.8,7.5,58,20.8l-0.4-13.2c-0.1-2.8,2.1-5.2,5-5.2c2.8-0.2,5.2,2.1,5.2,5L193.4,53.4z"/>
		<path class="st1" d="M216.9,115.2c0,50.4-41,91.4-91.4,91.4c-21.2,0-41.8-7.4-58-20.7l0.4,13.2c0.1,2.8-2.1,5.2-4.9,5.3
			c-2.8,0.1-5.2-2.1-5.3-5l-0.9-25.6v-0.1c0-0.4,0-0.8,0.1-1.1c0-0.2,0.1-0.5,0.2-0.7c0.2-0.5,0.5-1.1,1-1.6
			c0.1-0.2,0.4-0.4,0.5-0.5c0.4-0.4,0.8-0.5,1.2-0.8c0.5-0.2,1.3-0.4,2.1-0.4h25.6c2.8,0,5.1,2.3,5.1,5.1s-2.3,5.1-5.1,5.1H75.1
			c14.2,11.3,32.1,17.6,50.5,17.6c44.8,0,81.1-36.5,81.1-81.1c0-15.7-4.6-31.2-13.1-44.3c-1.6-2.3-0.9-5.5,1.5-7.1
			c2.3-1.6,5.5-0.9,7.1,1.5C211.8,80.2,216.9,97.4,216.9,115.2z"/>
		<path class="st1" d="M61.9,168.5c-0.7,0-1.4,0.1-2.1,0.4l0,0C60.5,168.6,61.2,168.5,61.9,168.5z"/>
		<path class="st1" d="M62.5,168.5c-0.2,0-0.4,0-0.5,0l0,0H62.5z"/>
		<path class="st2" d="M125,149.4v-26.6c0-2.8-2.3-5.1-5.1-5.1l-16.7-0.1L123,76.4l0.5,26.3c0.1,2.8,2.3,5.1,5.1,5.1H146L125,149.4z
			"/>
		<path class="st1" d="M158.7,99.9c-0.9-1.6-2.6-2.5-4.3-2.5h-20.6l-1-42.7c0-2.3-1.6-4.3-4-4.9c-2.3-0.5-4.7,0.7-5.8,2.8
			l-32.5,67.7c-0.8,1.6-0.7,3.5,0.2,4.9c0.9,1.6,2.6,2.4,4.2,2.5l19.7,0.1v42.9c0,2.3,1.6,4.5,3.9,5c0.4,0.1,0.8,0.1,1.2,0.1
			c1.8,0,3.7-1.1,4.6-2.8l34.5-68.2C159.8,103.3,159.6,101.5,158.7,99.9z M125,149.4v-26.6c0-2.8-2.3-5.1-5.1-5.1l-16.7-0.1
			L123,76.4l0.5,26.3c0.1,2.8,2.3,5.1,5.1,5.1H146L125,149.4z"/>
	</g>
</g>
</svg>
